<svg xmlns="http://www.w3.org/2000/svg" xmlns:xlink="http://www.w3.org/1999/xlink" width="200" zoomAndPan="magnify" viewBox="0 0 150 149.999998" height="200" preserveAspectRatio="xMidYMid meet" version="1.0"><defs><g/></defs><g fill="#ffbd59" fill-opacity="1"><g transform="translate(1.580604, 119.400207)"><g><path d="M 9.828125 1.328125 L 9.4375 -7.75 C 9.425781 -7.988281 9.421875 -8.28125 9.421875 -8.625 C 9.421875 -8.96875 9.421875 -9.34375 9.421875 -9.75 C 9.421875 -10.5625 9.421875 -11.441406 9.421875 -12.390625 C 9.429688 -13.347656 9.4375 -14.210938 9.4375 -14.984375 C 9.4375 -15.367188 9.4375 -15.707031 9.4375 -16 C 9.4375 -16.300781 9.429688 -16.546875 9.421875 -16.734375 C 9.378906 -16.535156 9.34375 -16.234375 9.3125 -15.828125 C 9.289062 -15.429688 9.265625 -14.988281 9.234375 -14.5 C 9.203125 -14.019531 9.164062 -13.515625 9.125 -12.984375 C 9.09375 -12.460938 9.0625 -11.957031 9.03125 -11.46875 C 9 -10.976562 8.960938 -10.535156 8.921875 -10.140625 C 8.890625 -9.753906 8.867188 -9.460938 8.859375 -9.265625 L 7.6875 1.328125 L 5.109375 1.328125 L 3.90625 -9.265625 C 3.875 -9.585938 3.832031 -10.097656 3.78125 -10.796875 C 3.726562 -11.492188 3.675781 -12.226562 3.625 -13 C 3.570312 -13.769531 3.519531 -14.503906 3.46875 -15.203125 C 3.414062 -15.898438 3.375 -16.410156 3.34375 -16.734375 L 3.34375 -15.71875 C 3.34375 -13.832031 3.34375 -12.359375 3.34375 -11.296875 C 3.34375 -10.242188 3.335938 -9.460938 3.328125 -8.953125 C 3.316406 -8.441406 3.3125 -8.125 3.3125 -8 C 3.3125 -7.875 3.3125 -7.789062 3.3125 -7.75 L 2.9375 1.328125 L 0.359375 1.328125 L 1.65625 -20.328125 L 4.515625 -20.328125 L 5.71875 -9.828125 C 5.769531 -9.460938 5.816406 -8.96875 5.859375 -8.34375 C 5.910156 -7.71875 5.96875 -7.054688 6.03125 -6.359375 C 6.09375 -5.671875 6.148438 -5.007812 6.203125 -4.375 C 6.265625 -3.738281 6.320312 -3.242188 6.375 -2.890625 C 6.425781 -3.253906 6.484375 -3.757812 6.546875 -4.40625 C 6.609375 -5.0625 6.664062 -5.734375 6.71875 -6.421875 C 6.78125 -7.109375 6.835938 -7.765625 6.890625 -8.390625 C 6.953125 -9.023438 7.003906 -9.503906 7.046875 -9.828125 L 8.234375 -20.328125 L 11.09375 -20.328125 L 12.40625 1.328125 Z M 9.828125 1.328125 "/></g></g></g><g fill="#ffbd59" fill-opacity="1"><g transform="translate(16.477694, 119.400207)"><g><path d="M 9.109375 1.359375 L 8.265625 -3.515625 L 4.484375 -3.515625 L 3.65625 1.359375 L 0.453125 1.359375 L 4.546875 -20.359375 L 8.21875 -20.359375 L 12.296875 1.359375 Z M 7.265625 -9.921875 C 7.222656 -10.242188 7.164062 -10.632812 7.09375 -11.09375 C 7.019531 -11.550781 6.945312 -12.03125 6.875 -12.53125 C 6.8125 -13.039062 6.753906 -13.550781 6.703125 -14.0625 C 6.660156 -14.570312 6.613281 -15.035156 6.5625 -15.453125 C 6.507812 -15.867188 6.46875 -16.222656 6.4375 -16.515625 C 6.414062 -16.816406 6.394531 -17 6.375 -17.0625 C 6.363281 -16.945312 6.328125 -16.597656 6.265625 -16.015625 C 6.203125 -15.441406 6.125 -14.78125 6.03125 -14.03125 C 5.9375 -13.28125 5.84375 -12.523438 5.75 -11.765625 C 5.65625 -11.015625 5.566406 -10.398438 5.484375 -9.921875 L 4.90625 -6.578125 L 7.859375 -6.578125 Z M 7.265625 -9.921875 "/></g></g></g><g fill="#ffbd59" fill-opacity="1"><g transform="translate(31.374784, 119.400207)"><g><path d="M 8.71875 1.359375 L 4.921875 -10.25 C 4.835938 -10.488281 4.734375 -10.859375 4.609375 -11.359375 C 4.484375 -11.867188 4.359375 -12.390625 4.234375 -12.921875 C 4.117188 -13.460938 4.015625 -13.960938 3.921875 -14.421875 C 3.828125 -14.890625 3.757812 -15.203125 3.71875 -15.359375 C 3.738281 -15.222656 3.773438 -14.953125 3.828125 -14.546875 C 3.878906 -14.140625 3.929688 -13.65625 3.984375 -13.09375 C 4.035156 -12.53125 4.078125 -11.921875 4.109375 -11.265625 C 4.140625 -10.609375 4.15625 -9.972656 4.15625 -9.359375 L 4.15625 1.359375 L 1.21875 1.359375 L 1.21875 -20.359375 L 4.03125 -20.359375 L 7.828125 -9.140625 C 7.929688 -8.859375 8.039062 -8.472656 8.15625 -7.984375 C 8.28125 -7.492188 8.398438 -6.992188 8.515625 -6.484375 C 8.640625 -5.972656 8.75 -5.5 8.84375 -5.0625 C 8.9375 -4.632812 9 -4.34375 9.03125 -4.1875 C 9.007812 -4.320312 8.972656 -4.570312 8.921875 -4.9375 C 8.878906 -5.300781 8.832031 -5.742188 8.78125 -6.265625 C 8.726562 -6.785156 8.679688 -7.375 8.640625 -8.03125 C 8.609375 -8.695312 8.59375 -9.394531 8.59375 -10.125 L 8.59375 -20.359375 L 11.53125 -20.359375 L 11.53125 1.359375 Z M 8.71875 1.359375 "/></g></g></g><g fill="#ffbd59" fill-opacity="1"><g transform="translate(46.271876, 119.400207)"><g><path d="M 9.109375 1.359375 L 8.265625 -3.515625 L 4.484375 -3.515625 L 3.65625 1.359375 L 0.453125 1.359375 L 4.546875 -20.359375 L 8.21875 -20.359375 L 12.296875 1.359375 Z M 7.265625 -9.921875 C 7.222656 -10.242188 7.164062 -10.632812 7.09375 -11.09375 C 7.019531 -11.550781 6.945312 -12.03125 6.875 -12.53125 C 6.8125 -13.039062 6.753906 -13.550781 6.703125 -14.0625 C 6.660156 -14.570312 6.613281 -15.035156 6.5625 -15.453125 C 6.507812 -15.867188 6.46875 -16.222656 6.4375 -16.515625 C 6.414062 -16.816406 6.394531 -17 6.375 -17.0625 C 6.363281 -16.945312 6.328125 -16.597656 6.265625 -16.015625 C 6.203125 -15.441406 6.125 -14.78125 6.03125 -14.03125 C 5.9375 -13.28125 5.84375 -12.523438 5.75 -11.765625 C 5.65625 -11.015625 5.566406 -10.398438 5.484375 -9.921875 L 4.90625 -6.578125 L 7.859375 -6.578125 Z M 7.265625 -9.921875 "/></g></g></g><g fill="#ffbd59" fill-opacity="1"><g transform="translate(61.168965, 119.400207)"><g><path d="M 1.53125 1.328125 L 1.53125 -20.328125 L 6.859375 -20.328125 C 7.710938 -20.328125 8.457031 -20.132812 9.09375 -19.75 C 9.726562 -19.375 10.265625 -18.878906 10.703125 -18.265625 C 11.140625 -17.648438 11.460938 -16.953125 11.671875 -16.171875 C 11.890625 -15.390625 12 -14.597656 12 -13.796875 L 12 -13.734375 C 12 -12.910156 11.890625 -12.097656 11.671875 -11.296875 C 11.460938 -10.503906 11.144531 -9.785156 10.71875 -9.140625 C 10.289062 -8.503906 9.757812 -7.984375 9.125 -7.578125 C 8.488281 -7.179688 7.742188 -6.984375 6.890625 -6.984375 L 4.71875 -6.984375 L 4.71875 1.328125 Z M 6.578125 -9.984375 C 6.972656 -9.984375 7.3125 -10.09375 7.59375 -10.3125 C 7.875 -10.53125 8.109375 -10.8125 8.296875 -11.15625 C 8.484375 -11.507812 8.617188 -11.910156 8.703125 -12.359375 C 8.785156 -12.804688 8.828125 -13.265625 8.828125 -13.734375 C 8.828125 -14.171875 8.78125 -14.601562 8.6875 -15.03125 C 8.59375 -15.46875 8.453125 -15.859375 8.265625 -16.203125 C 8.078125 -16.546875 7.84375 -16.820312 7.5625 -17.03125 C 7.28125 -17.238281 6.953125 -17.34375 6.578125 -17.34375 L 4.6875 -17.34375 L 4.6875 -9.984375 Z M 6.578125 -9.984375 "/></g></g></g><g fill="#ffbd59" fill-opacity="1"><g transform="translate(76.066053, 119.400207)"><g><path d="M 8.3125 -20.328125 L 11.53125 -20.328125 L 11.53125 -4.84375 C 11.53125 -2.71875 11.070312 -1.101562 10.15625 0 C 9.238281 1.101562 7.976562 1.65625 6.375 1.65625 C 4.78125 1.65625 3.519531 1.101562 2.59375 0 C 1.675781 -1.101562 1.21875 -2.71875 1.21875 -4.84375 L 1.21875 -20.328125 L 4.4375 -20.328125 L 4.4375 -4.953125 C 4.4375 -3.796875 4.570312 -2.914062 4.84375 -2.3125 C 5.113281 -1.71875 5.625 -1.421875 6.375 -1.421875 C 7.125 -1.421875 7.632812 -1.71875 7.90625 -2.3125 C 8.175781 -2.914062 8.3125 -3.796875 8.3125 -4.953125 Z M 8.3125 -20.328125 "/></g></g></g><g fill="#ffbd59" fill-opacity="1"><g transform="translate(90.963142, 119.400207)"><g><path d="M 8.75 1.359375 L 5.9375 -8.1875 L 4.71875 -8.1875 L 4.71875 1.359375 L 1.609375 1.359375 L 1.609375 -20.359375 L 6.9375 -20.359375 C 7.820312 -20.359375 8.578125 -20.179688 9.203125 -19.828125 C 9.835938 -19.484375 10.351562 -19.03125 10.75 -18.46875 C 11.15625 -17.90625 11.453125 -17.265625 11.640625 -16.546875 C 11.828125 -15.835938 11.921875 -15.117188 11.921875 -14.390625 C 11.921875 -14.273438 11.898438 -13.972656 11.859375 -13.484375 C 11.828125 -12.992188 11.71875 -12.445312 11.53125 -11.84375 C 11.34375 -11.25 11.046875 -10.65625 10.640625 -10.0625 C 10.234375 -9.476562 9.65625 -9.007812 8.90625 -8.65625 L 12.25 1.359375 Z M 6.5625 -11.125 C 6.96875 -11.125 7.3125 -11.226562 7.59375 -11.4375 C 7.875 -11.65625 8.101562 -11.925781 8.28125 -12.25 C 8.457031 -12.570312 8.585938 -12.921875 8.671875 -13.296875 C 8.753906 -13.679688 8.796875 -14.054688 8.796875 -14.421875 C 8.796875 -14.773438 8.753906 -15.128906 8.671875 -15.484375 C 8.585938 -15.847656 8.457031 -16.164062 8.28125 -16.4375 C 8.113281 -16.71875 7.898438 -16.945312 7.640625 -17.125 C 7.378906 -17.3125 7.066406 -17.40625 6.703125 -17.40625 L 4.71875 -17.40625 L 4.71875 -11.125 Z M 6.5625 -11.125 "/></g></g></g><g fill="#ffbd59" fill-opacity="1"><g transform="translate(105.860231, 119.400207)"><g><path d="M 9.109375 1.359375 L 8.265625 -3.515625 L 4.484375 -3.515625 L 3.65625 1.359375 L 0.453125 1.359375 L 4.546875 -20.359375 L 8.21875 -20.359375 L 12.296875 1.359375 Z M 7.265625 -9.921875 C 7.222656 -10.242188 7.164062 -10.632812 7.09375 -11.09375 C 7.019531 -11.550781 6.945312 -12.03125 6.875 -12.53125 C 6.8125 -13.039062 6.753906 -13.550781 6.703125 -14.0625 C 6.660156 -14.570312 6.613281 -15.035156 6.5625 -15.453125 C 6.507812 -15.867188 6.46875 -16.222656 6.4375 -16.515625 C 6.414062 -16.816406 6.394531 -17 6.375 -17.0625 C 6.363281 -16.945312 6.328125 -16.597656 6.265625 -16.015625 C 6.203125 -15.441406 6.125 -14.78125 6.03125 -14.03125 C 5.9375 -13.28125 5.84375 -12.523438 5.75 -11.765625 C 5.65625 -11.015625 5.566406 -10.398438 5.484375 -9.921875 L 4.90625 -6.578125 L 7.859375 -6.578125 Z M 7.265625 -9.921875 "/></g></g></g><g fill="#ffbd59" fill-opacity="1"><g transform="translate(120.757326, 119.400207)"><g><path d="M 1.046875 1.328125 L 1.046875 -1.53125 L 7.703125 -17.28125 L 1.859375 -17.28125 L 1.859375 -20.328125 L 11.40625 -20.328125 L 11.40625 -17.65625 L 4.640625 -1.78125 L 11.609375 -1.78125 L 11.609375 1.328125 Z M 1.046875 1.328125 "/></g></g></g><g fill="#ffbd59" fill-opacity="1"><g transform="translate(135.654421, 119.400207)"><g><path d="M 9.109375 1.359375 L 8.265625 -3.515625 L 4.484375 -3.515625 L 3.65625 1.359375 L 0.453125 1.359375 L 4.546875 -20.359375 L 8.21875 -20.359375 L 12.296875 1.359375 Z M 7.265625 -9.921875 C 7.222656 -10.242188 7.164062 -10.632812 7.09375 -11.09375 C 7.019531 -11.550781 6.945312 -12.03125 6.875 -12.53125 C 6.8125 -13.039062 6.753906 -13.550781 6.703125 -14.0625 C 6.660156 -14.570312 6.613281 -15.035156 6.5625 -15.453125 C 6.507812 -15.867188 6.46875 -16.222656 6.4375 -16.515625 C 6.414062 -16.816406 6.394531 -17 6.375 -17.0625 C 6.363281 -16.945312 6.328125 -16.597656 6.265625 -16.015625 C 6.203125 -15.441406 6.125 -14.78125 6.03125 -14.03125 C 5.9375 -13.28125 5.84375 -12.523438 5.75 -11.765625 C 5.65625 -11.015625 5.566406 -10.398438 5.484375 -9.921875 L 4.90625 -6.578125 L 7.859375 -6.578125 Z M 7.265625 -9.921875 "/></g></g></g><path fill="#ffbd59" d="M 39.042969 16.722656 C 45.480469 19.234375 48.695312 26.566406 46.152344 33.03125 L 25.835938 85.484375 C 23.339844 91.949219 16.039062 95.179688 9.601562 92.671875 C 3.214844 90.164062 -0.00390625 82.828125 2.492188 76.363281 L 22.808594 23.863281 C 25.308594 17.449219 32.605469 14.214844 39.042969 16.722656 " fill-opacity="1" fill-rule="evenodd"/><path fill="#ffde59" d="M 120.164062 16.722656 C 126.601562 19.234375 129.820312 26.566406 127.320312 33.03125 L 106.957031 85.484375 C 104.457031 91.949219 97.15625 95.179688 90.769531 92.671875 C 84.332031 90.164062 81.117188 82.828125 83.613281 76.363281 L 103.929688 23.863281 C 106.425781 17.449219 113.726562 14.214844 120.164062 16.722656 " fill-opacity="1" fill-rule="evenodd"/><path fill="#ffbd59" d="M 39.042969 16.722656 C 32.605469 14.214844 25.308594 17.449219 22.808594 23.863281 L 2.492188 76.363281 C -0.00390625 82.828125 3.214844 90.164062 9.601562 92.671875 C 16.039062 95.179688 23.339844 91.949219 25.835938 85.484375 L 46.152344 33.03125 C 48.695312 26.566406 45.480469 19.234375 39.042969 16.722656 Z M 110.941406 16.722656 C 104.507812 19.234375 101.289062 26.566406 103.785156 33.03125 L 124.101562 85.484375 C 126.648438 91.949219 133.949219 95.179688 140.335938 92.671875 C 146.769531 90.164062 149.988281 82.828125 147.492188 76.363281 L 127.128906 23.863281 C 124.628906 17.449219 117.332031 14.214844 110.941406 16.722656 Z M 79.628906 16.722656 C 86.015625 19.234375 89.230469 26.566406 86.734375 33.03125 L 66.417969 85.484375 C 63.921875 91.949219 56.621094 95.179688 50.1875 92.671875 C 43.75 90.164062 40.53125 82.828125 43.03125 76.363281 L 63.394531 23.863281 C 65.890625 17.449219 73.191406 14.214844 79.628906 16.722656 " fill-opacity="1" fill-rule="evenodd"/></svg>