<svg xmlns="http://www.w3.org/2000/svg" xmlns:xlink="http://www.w3.org/1999/xlink" width="500" zoomAndPan="magnify" viewBox="0 0 375 74.999997" height="100" preserveAspectRatio="xMidYMid meet" version="1.0"><defs><g/><clipPath id="7f17bbea7f"><path d="M 8 17 L 32 17 L 32 57.863281 L 8 57.863281 Z M 8 17 " clip-rule="nonzero"/></clipPath><clipPath id="2fa7fa4b8f"><path d="M 50 17 L 74 17 L 74 57.863281 L 50 57.863281 Z M 50 17 " clip-rule="nonzero"/></clipPath><clipPath id="18c1f416cd"><path d="M 8 17 L 84 17 L 84 57.863281 L 8 57.863281 Z M 8 17 " clip-rule="nonzero"/></clipPath></defs><g clip-path="url(#7f17bbea7f)"><path fill="#000000" d="M 27.605469 17.511719 C 30.921875 18.8125 32.578125 22.613281 31.269531 25.964844 L 20.804688 53.160156 C 19.519531 56.511719 15.757812 58.1875 12.445312 56.890625 C 9.15625 55.585938 7.496094 51.785156 8.785156 48.433594 L 19.246094 21.210938 C 20.53125 17.886719 24.292969 16.207031 27.605469 17.511719 " fill-opacity="1" fill-rule="evenodd"/></g><g clip-path="url(#2fa7fa4b8f)"><path fill="#737373" d="M 69.382812 17.511719 C 72.699219 18.8125 74.355469 22.613281 73.070312 25.964844 L 62.582031 53.160156 C 61.296875 56.511719 57.535156 58.1875 54.246094 56.890625 C 50.933594 55.585938 49.273438 51.785156 50.5625 48.433594 L 61.023438 21.210938 C 62.308594 17.886719 66.070312 16.207031 69.382812 17.511719 " fill-opacity="1" fill-rule="evenodd"/></g><g clip-path="url(#18c1f416cd)"><path fill="#000000" d="M 27.605469 17.511719 C 24.292969 16.207031 20.53125 17.886719 19.246094 21.210938 L 8.785156 48.433594 C 7.496094 51.785156 9.15625 55.585938 12.445312 56.890625 C 15.757812 58.1875 19.519531 56.511719 20.804688 53.160156 L 31.269531 25.964844 C 32.578125 22.613281 30.921875 18.8125 27.605469 17.511719 Z M 64.636719 17.511719 C 61.320312 18.8125 59.664062 22.613281 60.949219 25.964844 L 71.414062 53.160156 C 72.722656 56.511719 76.484375 58.1875 79.773438 56.890625 C 83.085938 55.585938 84.746094 51.785156 83.457031 48.433594 L 72.972656 21.210938 C 71.683594 17.886719 67.925781 16.207031 64.636719 17.511719 Z M 48.507812 17.511719 C 51.796875 18.8125 53.453125 22.613281 52.167969 25.964844 L 41.707031 53.160156 C 40.421875 56.511719 36.660156 58.1875 33.347656 56.890625 C 30.03125 55.585938 28.375 51.785156 29.660156 48.433594 L 40.148438 21.210938 C 41.433594 17.886719 45.195312 16.207031 48.507812 17.511719 " fill-opacity="1" fill-rule="evenodd"/></g><g fill="#000000" fill-opacity="1"><g transform="translate(91.913306, 52.860407)"><g><path d="M 16.234375 2.40625 L 14.734375 -6.265625 L 8 -6.265625 L 6.5 2.40625 L 0.8125 2.40625 L 8.09375 -36.265625 L 14.640625 -36.265625 L 21.90625 2.40625 Z M 12.953125 -17.6875 C 12.859375 -18.257812 12.75 -18.953125 12.625 -19.765625 C 12.507812 -20.585938 12.390625 -21.445312 12.265625 -22.34375 C 12.148438 -23.238281 12.046875 -24.140625 11.953125 -25.046875 C 11.859375 -25.953125 11.765625 -26.773438 11.671875 -27.515625 C 11.585938 -28.265625 11.519531 -28.898438 11.46875 -29.421875 C 11.425781 -29.953125 11.390625 -30.28125 11.359375 -30.40625 C 11.328125 -30.195312 11.257812 -29.578125 11.15625 -28.546875 C 11.050781 -27.515625 10.914062 -26.332031 10.75 -25 C 10.582031 -23.664062 10.414062 -22.320312 10.25 -20.96875 C 10.082031 -19.625 9.921875 -18.53125 9.765625 -17.6875 L 8.734375 -11.734375 L 14 -11.734375 Z M 12.953125 -17.6875 "/></g></g></g><g fill="#000000" fill-opacity="1"><g transform="translate(114.412323, 52.860407)"><g><path d="M 15.546875 2.40625 L 8.765625 -18.265625 C 8.617188 -18.691406 8.429688 -19.351562 8.203125 -20.25 C 7.972656 -21.144531 7.753906 -22.066406 7.546875 -23.015625 C 7.335938 -23.972656 7.148438 -24.867188 6.984375 -25.703125 C 6.816406 -26.535156 6.703125 -27.085938 6.640625 -27.359375 C 6.671875 -27.117188 6.726562 -26.632812 6.8125 -25.90625 C 6.90625 -25.175781 7 -24.3125 7.09375 -23.3125 C 7.1875 -22.3125 7.257812 -21.226562 7.3125 -20.0625 C 7.375 -18.894531 7.40625 -17.769531 7.40625 -16.6875 L 7.40625 2.40625 L 2.1875 2.40625 L 2.1875 -36.265625 L 7.1875 -36.265625 L 13.953125 -16.265625 C 14.140625 -15.785156 14.335938 -15.101562 14.546875 -14.21875 C 14.753906 -13.34375 14.960938 -12.453125 15.171875 -11.546875 C 15.390625 -10.640625 15.582031 -9.796875 15.75 -9.015625 C 15.914062 -8.242188 16.03125 -7.722656 16.09375 -7.453125 C 16.0625 -7.691406 16 -8.132812 15.90625 -8.78125 C 15.8125 -9.4375 15.71875 -10.226562 15.625 -11.15625 C 15.539062 -12.082031 15.46875 -13.132812 15.40625 -14.3125 C 15.34375 -15.5 15.3125 -16.742188 15.3125 -18.046875 L 15.3125 -36.265625 L 20.546875 -36.265625 L 20.546875 2.40625 Z M 15.546875 2.40625 "/></g></g></g><g fill="#000000" fill-opacity="1"><g transform="translate(136.91134, 52.860407)"><g><path d="M 16.234375 2.40625 L 14.734375 -6.265625 L 8 -6.265625 L 6.5 2.40625 L 0.8125 2.40625 L 8.09375 -36.265625 L 14.640625 -36.265625 L 21.90625 2.40625 Z M 12.953125 -17.6875 C 12.859375 -18.257812 12.75 -18.953125 12.625 -19.765625 C 12.507812 -20.585938 12.390625 -21.445312 12.265625 -22.34375 C 12.148438 -23.238281 12.046875 -24.140625 11.953125 -25.046875 C 11.859375 -25.953125 11.765625 -26.773438 11.671875 -27.515625 C 11.585938 -28.265625 11.519531 -28.898438 11.46875 -29.421875 C 11.425781 -29.953125 11.390625 -30.28125 11.359375 -30.40625 C 11.328125 -30.195312 11.257812 -29.578125 11.15625 -28.546875 C 11.050781 -27.515625 10.914062 -26.332031 10.75 -25 C 10.582031 -23.664062 10.414062 -22.320312 10.25 -20.96875 C 10.082031 -19.625 9.921875 -18.53125 9.765625 -17.6875 L 8.734375 -11.734375 L 14 -11.734375 Z M 12.953125 -17.6875 "/></g></g></g><g fill="#000000" fill-opacity="1"><g transform="translate(159.410356, 52.860407)"><g><path d="M 2.734375 2.359375 L 2.734375 -36.21875 L 12.234375 -36.21875 C 13.742188 -36.21875 15.066406 -35.878906 16.203125 -35.203125 C 17.335938 -34.523438 18.289062 -33.640625 19.0625 -32.546875 C 19.84375 -31.453125 20.421875 -30.207031 20.796875 -28.8125 C 21.171875 -27.414062 21.359375 -26.007812 21.359375 -24.59375 L 21.359375 -24.453125 C 21.359375 -22.992188 21.171875 -21.550781 20.796875 -20.125 C 20.421875 -18.707031 19.851562 -17.429688 19.09375 -16.296875 C 18.332031 -15.160156 17.382812 -14.234375 16.25 -13.515625 C 15.113281 -12.804688 13.785156 -12.453125 12.265625 -12.453125 L 8.40625 -12.453125 L 8.40625 2.359375 Z M 11.734375 -17.765625 C 12.421875 -17.765625 13.015625 -17.960938 13.515625 -18.359375 C 14.015625 -18.753906 14.429688 -19.257812 14.765625 -19.875 C 15.097656 -20.5 15.34375 -21.210938 15.5 -22.015625 C 15.65625 -22.816406 15.734375 -23.628906 15.734375 -24.453125 C 15.734375 -25.242188 15.648438 -26.023438 15.484375 -26.796875 C 15.316406 -27.566406 15.066406 -28.253906 14.734375 -28.859375 C 14.398438 -29.460938 13.984375 -29.953125 13.484375 -30.328125 C 12.984375 -30.710938 12.398438 -30.90625 11.734375 -30.90625 L 8.359375 -30.90625 L 8.359375 -17.765625 Z M 11.734375 -17.765625 "/></g></g></g><g fill="#000000" fill-opacity="1"><g transform="translate(181.909373, 52.860407)"><g><path d="M 14.8125 -36.21875 L 20.546875 -36.21875 L 20.546875 -8.640625 C 20.546875 -4.847656 19.726562 -1.96875 18.09375 0 C 16.457031 1.96875 14.210938 2.953125 11.359375 2.953125 C 8.515625 2.953125 6.273438 1.96875 4.640625 0 C 3.003906 -1.96875 2.1875 -4.847656 2.1875 -8.640625 L 2.1875 -36.21875 L 7.90625 -36.21875 L 7.90625 -8.8125 C 7.90625 -6.757812 8.144531 -5.203125 8.625 -4.140625 C 9.113281 -3.078125 10.023438 -2.546875 11.359375 -2.546875 C 12.691406 -2.546875 13.597656 -3.078125 14.078125 -4.140625 C 14.566406 -5.203125 14.8125 -6.757812 14.8125 -8.8125 Z M 14.8125 -36.21875 "/></g></g></g><g fill="#000000" fill-opacity="1"><g transform="translate(204.408394, 52.860407)"><g><path d="M 15.59375 2.40625 L 10.59375 -14.59375 L 8.40625 -14.59375 L 8.40625 2.40625 L 2.859375 2.40625 L 2.859375 -36.265625 L 12.359375 -36.265625 C 13.941406 -36.265625 15.289062 -35.953125 16.40625 -35.328125 C 17.53125 -34.710938 18.445312 -33.90625 19.15625 -32.90625 C 19.875 -31.90625 20.398438 -30.769531 20.734375 -29.5 C 21.066406 -28.226562 21.234375 -26.941406 21.234375 -25.640625 C 21.234375 -25.421875 21.203125 -24.878906 21.140625 -24.015625 C 21.078125 -23.148438 20.878906 -22.179688 20.546875 -21.109375 C 20.210938 -20.035156 19.679688 -18.972656 18.953125 -17.921875 C 18.222656 -16.878906 17.191406 -16.039062 15.859375 -15.40625 L 21.8125 2.40625 Z M 11.6875 -19.8125 C 12.40625 -19.8125 13.015625 -20 13.515625 -20.375 C 14.015625 -20.757812 14.425781 -21.238281 14.75 -21.8125 C 15.070312 -22.394531 15.304688 -23.023438 15.453125 -23.703125 C 15.609375 -24.378906 15.6875 -25.039062 15.6875 -25.6875 C 15.6875 -26.320312 15.609375 -26.957031 15.453125 -27.59375 C 15.304688 -28.226562 15.078125 -28.796875 14.765625 -29.296875 C 14.460938 -29.796875 14.078125 -30.203125 13.609375 -30.515625 C 13.140625 -30.835938 12.585938 -31 11.953125 -31 L 8.40625 -31 L 8.40625 -19.8125 Z M 11.6875 -19.8125 "/></g></g></g><g fill="#000000" fill-opacity="1"><g transform="translate(226.907415, 52.860407)"><g><path d="M 16.234375 2.40625 L 14.734375 -6.265625 L 8 -6.265625 L 6.5 2.40625 L 0.8125 2.40625 L 8.09375 -36.265625 L 14.640625 -36.265625 L 21.90625 2.40625 Z M 12.953125 -17.6875 C 12.859375 -18.257812 12.75 -18.953125 12.625 -19.765625 C 12.507812 -20.585938 12.390625 -21.445312 12.265625 -22.34375 C 12.148438 -23.238281 12.046875 -24.140625 11.953125 -25.046875 C 11.859375 -25.953125 11.765625 -26.773438 11.671875 -27.515625 C 11.585938 -28.265625 11.519531 -28.898438 11.46875 -29.421875 C 11.425781 -29.953125 11.390625 -30.28125 11.359375 -30.40625 C 11.328125 -30.195312 11.257812 -29.578125 11.15625 -28.546875 C 11.050781 -27.515625 10.914062 -26.332031 10.75 -25 C 10.582031 -23.664062 10.414062 -22.320312 10.25 -20.96875 C 10.082031 -19.625 9.921875 -18.53125 9.765625 -17.6875 L 8.734375 -11.734375 L 14 -11.734375 Z M 12.953125 -17.6875 "/></g></g></g><g fill="#000000" fill-opacity="1"><g transform="translate(249.406436, 52.860407)"><g><path d="M 1.859375 2.359375 L 1.859375 -2.734375 L 13.734375 -30.765625 L 3.3125 -30.765625 L 3.3125 -36.21875 L 20.3125 -36.21875 L 20.3125 -31.453125 L 8.265625 -3.1875 L 20.6875 -3.1875 L 20.6875 2.359375 Z M 1.859375 2.359375 "/></g></g></g><g fill="#000000" fill-opacity="1"><g transform="translate(271.905456, 52.860407)"><g><path d="M 16.234375 2.40625 L 14.734375 -6.265625 L 8 -6.265625 L 6.5 2.40625 L 0.8125 2.40625 L 8.09375 -36.265625 L 14.640625 -36.265625 L 21.90625 2.40625 Z M 12.953125 -17.6875 C 12.859375 -18.257812 12.75 -18.953125 12.625 -19.765625 C 12.507812 -20.585938 12.390625 -21.445312 12.265625 -22.34375 C 12.148438 -23.238281 12.046875 -24.140625 11.953125 -25.046875 C 11.859375 -25.953125 11.765625 -26.773438 11.671875 -27.515625 C 11.585938 -28.265625 11.519531 -28.898438 11.46875 -29.421875 C 11.425781 -29.953125 11.390625 -30.28125 11.359375 -30.40625 C 11.328125 -30.195312 11.257812 -29.578125 11.15625 -28.546875 C 11.050781 -27.515625 10.914062 -26.332031 10.75 -25 C 10.582031 -23.664062 10.414062 -22.320312 10.25 -20.96875 C 10.082031 -19.625 9.921875 -18.53125 9.765625 -17.6875 L 8.734375 -11.734375 L 14 -11.734375 Z M 12.953125 -17.6875 "/></g></g></g><g fill="#000000" fill-opacity="1"><g transform="translate(294.404477, 52.860407)"><g><path d="M 6.09375 3.140625 C 4.96875 3.140625 4.019531 2.710938 3.25 1.859375 C 2.476562 1.015625 2.09375 -0.015625 2.09375 -1.234375 C 2.09375 -1.835938 2.195312 -2.394531 2.40625 -2.90625 C 2.625 -3.425781 2.910156 -3.878906 3.265625 -4.265625 C 3.628906 -4.660156 4.050781 -4.972656 4.53125 -5.203125 C 5.019531 -5.429688 5.539062 -5.546875 6.09375 -5.546875 C 6.632812 -5.546875 7.144531 -5.429688 7.625 -5.203125 C 8.113281 -4.972656 8.53125 -4.660156 8.875 -4.265625 C 9.226562 -3.878906 9.507812 -3.425781 9.71875 -2.90625 C 9.9375 -2.394531 10.046875 -1.835938 10.046875 -1.234375 C 10.046875 -0.617188 9.9375 -0.0507812 9.71875 0.46875 C 9.507812 1 9.226562 1.460938 8.875 1.859375 C 8.53125 2.253906 8.113281 2.566406 7.625 2.796875 C 7.144531 3.023438 6.632812 3.140625 6.09375 3.140625 Z M 6.09375 3.140625 "/></g></g></g><g fill="#000000" fill-opacity="1"><g transform="translate(303.732669, 52.860407)"><g><path d="M 20.265625 1.140625 C 19.878906 1.441406 19.425781 1.71875 18.90625 1.96875 C 18.394531 2.226562 17.863281 2.445312 17.3125 2.625 C 16.769531 2.8125 16.207031 2.953125 15.625 3.046875 C 15.050781 3.140625 14.507812 3.1875 14 3.1875 C 12.03125 3.1875 10.3125 2.710938 8.84375 1.765625 C 7.375 0.828125 6.15625 -0.515625 5.1875 -2.265625 C 4.21875 -4.023438 3.488281 -6.140625 3 -8.609375 C 2.507812 -11.078125 2.265625 -13.828125 2.265625 -16.859375 C 2.265625 -19.953125 2.53125 -22.734375 3.0625 -25.203125 C 3.59375 -27.671875 4.359375 -29.769531 5.359375 -31.5 C 6.359375 -33.226562 7.585938 -34.550781 9.046875 -35.46875 C 10.503906 -36.394531 12.15625 -36.859375 14 -36.859375 C 14.9375 -36.859375 15.921875 -36.695312 16.953125 -36.375 C 17.984375 -36.0625 18.816406 -35.664062 19.453125 -35.1875 L 19.453125 -28.546875 C 18.753906 -29.484375 17.9375 -30.15625 17 -30.5625 C 16.0625 -30.976562 15.148438 -31.1875 14.265625 -31.1875 C 13.179688 -31.1875 12.25 -30.8125 11.46875 -30.0625 C 10.695312 -29.320312 10.0625 -28.304688 9.5625 -27.015625 C 9.0625 -25.734375 8.695312 -24.21875 8.46875 -22.46875 C 8.25 -20.726562 8.140625 -18.859375 8.140625 -16.859375 C 8.140625 -14.710938 8.257812 -12.757812 8.5 -11 C 8.738281 -9.238281 9.113281 -7.726562 9.625 -6.46875 C 10.144531 -5.21875 10.789062 -4.25 11.5625 -3.5625 C 12.34375 -2.882812 13.242188 -2.546875 14.265625 -2.546875 C 15.390625 -2.546875 16.425781 -2.78125 17.375 -3.25 C 18.332031 -3.71875 19.296875 -4.5 20.265625 -5.59375 Z M 20.265625 1.140625 "/></g></g></g><g fill="#000000" fill-opacity="1"><g transform="translate(324.685986, 52.860407)"><g><path d="M 11.359375 3 C 9.578125 3 8.054688 2.535156 6.796875 1.609375 C 5.535156 0.691406 4.519531 -0.617188 3.75 -2.328125 C 2.976562 -4.046875 2.414062 -6.128906 2.0625 -8.578125 C 1.71875 -11.035156 1.546875 -13.796875 1.546875 -16.859375 C 1.546875 -19.921875 1.726562 -22.675781 2.09375 -25.125 C 2.457031 -27.582031 3.039062 -29.675781 3.84375 -31.40625 C 4.644531 -33.132812 5.664062 -34.457031 6.90625 -35.375 C 8.144531 -36.300781 9.628906 -36.765625 11.359375 -36.765625 C 13.148438 -36.765625 14.671875 -36.300781 15.921875 -35.375 C 17.179688 -34.457031 18.195312 -33.132812 18.96875 -31.40625 C 19.75 -29.675781 20.3125 -27.582031 20.65625 -25.125 C 21.007812 -22.675781 21.1875 -19.921875 21.1875 -16.859375 C 21.1875 -13.796875 21.007812 -11.035156 20.65625 -8.578125 C 20.3125 -6.128906 19.75 -4.046875 18.96875 -2.328125 C 18.195312 -0.617188 17.179688 0.691406 15.921875 1.609375 C 14.671875 2.535156 13.148438 3 11.359375 3 Z M 11.359375 -2.546875 C 12.179688 -2.546875 12.847656 -2.863281 13.359375 -3.5 C 13.878906 -4.132812 14.289062 -5.066406 14.59375 -6.296875 C 14.894531 -7.523438 15.101562 -9.023438 15.21875 -10.796875 C 15.34375 -12.566406 15.40625 -14.585938 15.40625 -16.859375 C 15.40625 -19.046875 15.359375 -21.015625 15.265625 -22.765625 C 15.179688 -24.523438 15 -26.035156 14.71875 -27.296875 C 14.445312 -28.554688 14.046875 -29.519531 13.515625 -30.1875 C 12.992188 -30.851562 12.273438 -31.1875 11.359375 -31.1875 C 10.453125 -31.1875 9.734375 -30.851562 9.203125 -30.1875 C 8.671875 -29.519531 8.269531 -28.554688 8 -27.296875 C 7.726562 -26.035156 7.546875 -24.523438 7.453125 -22.765625 C 7.359375 -21.015625 7.3125 -19.046875 7.3125 -16.859375 C 7.3125 -14.585938 7.375 -12.566406 7.5 -10.796875 C 7.625 -9.023438 7.835938 -7.523438 8.140625 -6.296875 C 8.441406 -5.066406 8.847656 -4.132812 9.359375 -3.5 C 9.878906 -2.863281 10.546875 -2.546875 11.359375 -2.546875 Z M 11.359375 -2.546875 "/></g></g></g><g fill="#000000" fill-opacity="1"><g transform="translate(345.639302, 52.860407)"><g><path d="M 17.5 2.359375 L 16.8125 -13.8125 C 16.78125 -14.238281 16.765625 -14.753906 16.765625 -15.359375 C 16.765625 -15.960938 16.765625 -16.628906 16.765625 -17.359375 C 16.765625 -18.816406 16.769531 -20.394531 16.78125 -22.09375 C 16.800781 -23.789062 16.8125 -25.320312 16.8125 -26.6875 C 16.8125 -27.375 16.8125 -27.984375 16.8125 -28.515625 C 16.8125 -29.046875 16.796875 -29.476562 16.765625 -29.8125 C 16.710938 -29.445312 16.660156 -28.910156 16.609375 -28.203125 C 16.566406 -27.492188 16.515625 -26.707031 16.453125 -25.84375 C 16.390625 -24.976562 16.328125 -24.078125 16.265625 -23.140625 C 16.210938 -22.203125 16.15625 -21.300781 16.09375 -20.4375 C 16.03125 -19.570312 15.96875 -18.789062 15.90625 -18.09375 C 15.84375 -17.394531 15.796875 -16.863281 15.765625 -16.5 L 13.6875 2.359375 L 9.09375 2.359375 L 6.953125 -16.5 C 6.890625 -17.070312 6.8125 -17.976562 6.71875 -19.21875 C 6.632812 -20.46875 6.546875 -21.78125 6.453125 -23.15625 C 6.359375 -24.53125 6.265625 -25.835938 6.171875 -27.078125 C 6.085938 -28.328125 6.015625 -29.238281 5.953125 -29.8125 L 5.953125 -28 C 5.953125 -24.632812 5.953125 -22.007812 5.953125 -20.125 C 5.953125 -18.25 5.941406 -16.859375 5.921875 -15.953125 C 5.910156 -15.046875 5.90625 -14.476562 5.90625 -14.25 C 5.90625 -14.019531 5.90625 -13.875 5.90625 -13.8125 L 5.234375 2.359375 L 0.640625 2.359375 L 2.953125 -36.21875 L 8.046875 -36.21875 L 10.1875 -17.5 C 10.269531 -16.863281 10.359375 -15.984375 10.453125 -14.859375 C 10.546875 -13.742188 10.644531 -12.570312 10.75 -11.34375 C 10.851562 -10.113281 10.957031 -8.929688 11.0625 -7.796875 C 11.175781 -6.660156 11.273438 -5.773438 11.359375 -5.140625 C 11.453125 -5.804688 11.550781 -6.710938 11.65625 -7.859375 C 11.757812 -9.015625 11.863281 -10.203125 11.96875 -11.421875 C 12.082031 -12.648438 12.191406 -13.828125 12.296875 -14.953125 C 12.398438 -16.078125 12.484375 -16.925781 12.546875 -17.5 L 14.6875 -36.21875 L 19.765625 -36.21875 L 22.09375 2.359375 Z M 17.5 2.359375 "/></g></g></g></svg>