<svg xmlns="http://www.w3.org/2000/svg" xmlns:xlink="http://www.w3.org/1999/xlink" width="500" zoomAndPan="magnify" viewBox="0 0 375 60" height="80" preserveAspectRatio="xMidYMid meet" version="1.0"><defs><g/><clipPath id="daaaa42efd"><rect x="0" width="51" y="0" height="52"/></clipPath><clipPath id="9fd325108c"><rect x="0" width="145" y="0" height="12"/></clipPath><clipPath id="6b5e6c8330"><path d="M 101 0.398438 L 122 0.398438 L 122 32 L 101 32 Z M 101 0.398438 " clip-rule="nonzero"/></clipPath><clipPath id="100f6da493"><path d="M 226 11 L 246.71875 11 L 246.71875 32 L 226 32 Z M 226 11 " clip-rule="nonzero"/></clipPath><clipPath id="7b67e925fe"><rect x="0" width="247" y="0" height="44"/></clipPath></defs><g transform="matrix(1, 0, 0, 1, 280, -0.000000000000001479)"><g clip-path="url(#daaaa42efd)"><g fill="#1b1b1b" fill-opacity="1"><g transform="translate(0.314484, 39.916286)"><g><path d="M 7.1875 0.390625 C 6.132812 0.390625 5.265625 0.0351562 4.578125 -0.671875 C 3.898438 -1.390625 3.5625 -2.265625 3.5625 -3.296875 C 3.5625 -4.328125 3.898438 -5.191406 4.578125 -5.890625 C 5.265625 -6.585938 6.132812 -6.9375 7.1875 -6.9375 C 8.25 -6.9375 9.128906 -6.585938 9.828125 -5.890625 C 10.523438 -5.191406 10.875 -4.328125 10.875 -3.296875 C 10.875 -2.265625 10.515625 -1.390625 9.796875 -0.671875 C 9.085938 0.0351562 8.21875 0.390625 7.1875 0.390625 Z M 7.1875 0.390625 "/></g></g></g><g fill="#1b1b1b" fill-opacity="1"><g transform="translate(11.279827, 39.916286)"><g><path d="M 11.4375 -17.46875 L 11.4375 -8.390625 C 11.4375 -7.390625 11.484375 -6.65625 11.578125 -6.1875 C 11.679688 -5.71875 11.96875 -5.335938 12.4375 -5.046875 C 12.90625 -4.765625 13.671875 -4.625 14.734375 -4.625 C 15.273438 -4.625 15.832031 -4.679688 16.40625 -4.796875 L 16.40625 -0.171875 C 16.113281 -0.109375 15.539062 -0.046875 14.6875 0.015625 C 13.832031 0.0859375 12.976562 0.125 12.125 0.125 C 9.894531 0.125 8.242188 -0.203125 7.171875 -0.859375 C 6.097656 -1.515625 5.429688 -2.3125 5.171875 -3.25 C 4.921875 -4.195312 4.796875 -5.425781 4.796875 -6.9375 L 4.796875 -17.46875 L 1.15625 -17.46875 L 1.15625 -22.65625 L 4.796875 -22.65625 L 4.796875 -29.984375 L 11.4375 -29.984375 L 11.4375 -22.65625 L 16.40625 -22.65625 L 16.40625 -17.46875 Z M 11.4375 -17.46875 "/></g></g></g><g fill="#1b1b1b" fill-opacity="1"><g transform="translate(26.271505, 39.916286)"><g><path d="M 12.5 0.390625 C 10.101562 0.390625 8.082031 -0.132812 6.4375 -1.1875 C 4.800781 -2.25 3.582031 -3.664062 2.78125 -5.4375 C 1.976562 -7.207031 1.578125 -9.175781 1.578125 -11.34375 C 1.578125 -13.488281 1.976562 -15.453125 2.78125 -17.234375 C 3.582031 -19.023438 4.800781 -20.453125 6.4375 -21.515625 C 8.082031 -22.585938 10.101562 -23.125 12.5 -23.125 C 14.90625 -23.125 16.925781 -22.59375 18.5625 -21.53125 C 20.207031 -20.476562 21.425781 -19.0625 22.21875 -17.28125 C 23.019531 -15.5 23.421875 -13.535156 23.421875 -11.390625 C 23.421875 -9.253906 23.019531 -7.289062 22.21875 -5.5 C 21.425781 -3.71875 20.207031 -2.289062 18.5625 -1.21875 C 16.925781 -0.144531 14.90625 0.390625 12.5 0.390625 Z M 12.5 -4.96875 C 13.988281 -4.96875 15.085938 -5.582031 15.796875 -6.8125 C 16.515625 -8.039062 16.875 -9.582031 16.875 -11.4375 C 16.875 -13.289062 16.515625 -14.8125 15.796875 -16 C 15.085938 -17.1875 13.988281 -17.78125 12.5 -17.78125 C 11.019531 -17.78125 9.921875 -17.175781 9.203125 -15.96875 C 8.492188 -14.769531 8.140625 -13.257812 8.140625 -11.4375 C 8.140625 -9.582031 8.503906 -8.039062 9.234375 -6.8125 C 9.960938 -5.582031 11.050781 -4.96875 12.5 -4.96875 Z M 12.5 -4.96875 "/></g></g></g></g></g><g transform="matrix(1, 0, 0, 1, 115, 48)"><g clip-path="url(#9fd325108c)"><g fill="#737373" fill-opacity="1"><g transform="translate(1.554341, 8.646923)"><g><path d="M 2.078125 0.015625 L 2.078125 -2.015625 L 0.265625 -5.5625 L 1.015625 -5.5625 L 2.390625 -2.78125 L 2.453125 -2.78125 L 3.828125 -5.5625 L 4.578125 -5.5625 L 2.765625 -2.015625 L 2.765625 0 Z M 2.078125 0.015625 "/></g></g></g><g fill="#737373" fill-opacity="1"><g transform="translate(5.119789, 8.646923)"><g><path d="M 3.828125 -1.625 L 1.578125 -1.625 L 0.984375 0 L 0.28125 0 L 2.375 -5.5625 L 3.03125 -5.5625 L 5.125 0 L 4.421875 0 Z M 3.640625 -2.171875 L 2.703125 -4.6875 L 2.671875 -4.6875 L 1.765625 -2.171875 Z M 3.640625 -2.171875 "/></g></g></g><g fill="#737373" fill-opacity="1"><g transform="translate(10.082823, 8.646923)"><g><path d="M 0.59375 -5.5625 L 1.609375 -5.5625 L 3.25 -1.296875 L 3.28125 -1.296875 L 4.921875 -5.5625 L 5.9375 -5.5625 L 5.9375 0 L 5.265625 0 L 5.265625 -4.5 L 5.234375 -4.5 L 3.515625 0 L 3.015625 0 L 1.296875 -4.5 L 1.265625 -4.5 L 1.265625 0 L 0.59375 0 Z M 0.59375 -5.5625 "/></g></g></g><g fill="#737373" fill-opacity="1"><g transform="translate(16.181389, 8.646923)"><g><path d="M 3.828125 -1.625 L 1.578125 -1.625 L 0.984375 0 L 0.28125 0 L 2.375 -5.5625 L 3.03125 -5.5625 L 5.125 0 L 4.421875 0 Z M 3.640625 -2.171875 L 2.703125 -4.6875 L 2.671875 -4.6875 L 1.765625 -2.171875 Z M 3.640625 -2.171875 "/></g></g></g><g fill="#737373" fill-opacity="1"><g transform="translate(21.144423, 8.646923)"><g><path d="M 4.796875 -5.5625 L 4.796875 0 L 4.109375 0 L 4.109375 -2.515625 L 1.28125 -2.515625 L 1.28125 0 L 0.59375 0 L 0.59375 -5.5625 L 1.28125 -5.5625 L 1.28125 -3.078125 L 4.109375 -3.078125 L 4.109375 -5.5625 Z M 4.796875 -5.5625 "/></g></g></g><g fill="#737373" fill-opacity="1"><g transform="translate(26.25833, 8.646923)"><g><path d="M 2.421875 0.0625 C 1.992188 0.0625 1.628906 -0.0234375 1.328125 -0.203125 C 1.023438 -0.378906 0.796875 -0.609375 0.640625 -0.890625 C 0.484375 -1.171875 0.40625 -1.460938 0.40625 -1.765625 L 0.40625 -1.8125 L 1.171875 -1.8125 L 1.171875 -1.765625 C 1.171875 -1.585938 1.210938 -1.40625 1.296875 -1.21875 C 1.378906 -1.03125 1.515625 -0.875 1.703125 -0.75 C 1.898438 -0.625 2.144531 -0.5625 2.4375 -0.5625 C 2.789062 -0.5625 3.082031 -0.648438 3.3125 -0.828125 C 3.539062 -1.015625 3.65625 -1.257812 3.65625 -1.5625 C 3.65625 -1.8125 3.570312 -2.007812 3.40625 -2.15625 C 3.238281 -2.3125 3.023438 -2.414062 2.765625 -2.46875 L 1.953125 -2.625 C 1.023438 -2.832031 0.5625 -3.320312 0.5625 -4.09375 C 0.5625 -4.414062 0.632812 -4.691406 0.78125 -4.921875 C 0.9375 -5.160156 1.148438 -5.34375 1.421875 -5.46875 C 1.691406 -5.601562 2.007812 -5.671875 2.375 -5.671875 C 2.78125 -5.671875 3.128906 -5.585938 3.421875 -5.421875 C 3.710938 -5.265625 3.929688 -5.050781 4.078125 -4.78125 C 4.222656 -4.519531 4.296875 -4.253906 4.296875 -3.984375 L 4.296875 -3.9375 L 3.546875 -3.9375 L 3.546875 -3.96875 C 3.546875 -4.125 3.503906 -4.285156 3.421875 -4.453125 C 3.347656 -4.617188 3.222656 -4.765625 3.046875 -4.890625 C 2.867188 -5.015625 2.632812 -5.078125 2.34375 -5.078125 C 2.007812 -5.078125 1.742188 -4.984375 1.546875 -4.796875 C 1.347656 -4.609375 1.25 -4.378906 1.25 -4.109375 C 1.25 -3.867188 1.328125 -3.675781 1.484375 -3.53125 C 1.640625 -3.382812 1.847656 -3.285156 2.109375 -3.234375 L 2.84375 -3.09375 C 3.863281 -2.882812 4.375 -2.382812 4.375 -1.59375 C 4.375 -1.269531 4.289062 -0.984375 4.125 -0.734375 C 3.96875 -0.484375 3.738281 -0.285156 3.4375 -0.140625 C 3.144531 -0.00390625 2.804688 0.0625 2.421875 0.0625 Z M 2.421875 0.0625 "/></g></g></g><g fill="#737373" fill-opacity="1"><g transform="translate(30.60197, 8.646923)"><g><path d="M 0.625 -5.5625 L 1.3125 -5.5625 L 1.3125 0 L 0.625 0 Z M 0.625 -5.5625 "/></g></g></g><g fill="#737373" fill-opacity="1"><g transform="translate(32.094854, 8.646923)"><g><path d="M 4.3125 -4.9375 L 2.671875 -4.9375 L 2.671875 0 L 2 0 L 2 -4.9375 L 0.359375 -4.9375 L 0.359375 -5.5625 L 4.3125 -5.5625 Z M 4.3125 -4.9375 "/></g></g></g><g fill="#737373" fill-opacity="1"><g transform="translate(35.755589, 8.646923)"><g><path d="M 3.828125 -1.625 L 1.578125 -1.625 L 0.984375 0 L 0.28125 0 L 2.375 -5.5625 L 3.03125 -5.5625 L 5.125 0 L 4.421875 0 Z M 3.640625 -2.171875 L 2.703125 -4.6875 L 2.671875 -4.6875 L 1.765625 -2.171875 Z M 3.640625 -2.171875 "/></g></g></g><g fill="#737373" fill-opacity="1"><g transform="translate(40.718623, 8.646923)"><g/></g></g><g fill="#737373" fill-opacity="1"><g transform="translate(42.108282, 8.646923)"><g><path d="M 0.59375 -5.5625 L 1.609375 -5.5625 L 3.25 -1.296875 L 3.28125 -1.296875 L 4.921875 -5.5625 L 5.9375 -5.5625 L 5.9375 0 L 5.265625 0 L 5.265625 -4.5 L 5.234375 -4.5 L 3.515625 0 L 3.015625 0 L 1.296875 -4.5 L 1.265625 -4.5 L 1.265625 0 L 0.59375 0 Z M 0.59375 -5.5625 "/></g></g></g><g fill="#737373" fill-opacity="1"><g transform="translate(48.206849, 8.646923)"><g><path d="M 3.828125 -1.625 L 1.578125 -1.625 L 0.984375 0 L 0.28125 0 L 2.375 -5.5625 L 3.03125 -5.5625 L 5.125 0 L 4.421875 0 Z M 3.640625 -2.171875 L 2.703125 -4.6875 L 2.671875 -4.6875 L 1.765625 -2.171875 Z M 3.640625 -2.171875 "/></g></g></g><g fill="#737373" fill-opacity="1"><g transform="translate(53.169883, 8.646923)"><g><path d="M 0.59375 -5.5625 L 1.359375 -5.5625 L 4.34375 -1.09375 L 4.375 -1.09375 L 4.375 -5.5625 L 5.046875 -5.5625 L 5.046875 0 L 4.265625 0 L 1.296875 -4.390625 L 1.265625 -4.390625 L 1.265625 0 L 0.59375 0 Z M 0.59375 -5.5625 "/></g></g></g><g fill="#737373" fill-opacity="1"><g transform="translate(58.379077, 8.646923)"><g><path d="M 3.828125 -1.625 L 1.578125 -1.625 L 0.984375 0 L 0.28125 0 L 2.375 -5.5625 L 3.03125 -5.5625 L 5.125 0 L 4.421875 0 Z M 3.640625 -2.171875 L 2.703125 -4.6875 L 2.671875 -4.6875 L 1.765625 -2.171875 Z M 3.640625 -2.171875 "/></g></g></g><g fill="#737373" fill-opacity="1"><g transform="translate(62.683025, 8.646923)"><g><path d="M 4.3125 -4.9375 L 2.671875 -4.9375 L 2.671875 0 L 2 0 L 2 -4.9375 L 0.359375 -4.9375 L 0.359375 -5.5625 L 4.3125 -5.5625 Z M 4.3125 -4.9375 "/></g></g></g><g fill="#737373" fill-opacity="1"><g transform="translate(66.709037, 8.646923)"><g><path d="M 2.921875 0.0625 C 2.390625 0.0625 1.929688 -0.0546875 1.546875 -0.296875 C 1.171875 -0.546875 0.882812 -0.882812 0.6875 -1.3125 C 0.5 -1.75 0.40625 -2.242188 0.40625 -2.796875 C 0.40625 -3.347656 0.503906 -3.84375 0.703125 -4.28125 C 0.898438 -4.71875 1.1875 -5.054688 1.5625 -5.296875 C 1.945312 -5.546875 2.398438 -5.671875 2.921875 -5.671875 C 3.441406 -5.671875 3.890625 -5.546875 4.265625 -5.296875 C 4.640625 -5.054688 4.921875 -4.71875 5.109375 -4.28125 C 5.304688 -3.851562 5.40625 -3.359375 5.40625 -2.796875 C 5.40625 -2.234375 5.304688 -1.738281 5.109375 -1.3125 C 4.921875 -0.882812 4.640625 -0.546875 4.265625 -0.296875 C 3.890625 -0.0546875 3.441406 0.0625 2.921875 0.0625 Z M 2.90625 -0.578125 C 3.269531 -0.578125 3.585938 -0.671875 3.859375 -0.859375 C 4.128906 -1.046875 4.335938 -1.304688 4.484375 -1.640625 C 4.628906 -1.984375 4.703125 -2.375 4.703125 -2.8125 C 4.703125 -3.238281 4.628906 -3.625 4.484375 -3.96875 C 4.335938 -4.3125 4.128906 -4.578125 3.859375 -4.765625 C 3.585938 -4.953125 3.269531 -5.046875 2.90625 -5.046875 C 2.539062 -5.046875 2.222656 -4.945312 1.953125 -4.75 C 1.691406 -4.5625 1.488281 -4.296875 1.34375 -3.953125 C 1.195312 -3.617188 1.125 -3.238281 1.125 -2.8125 C 1.125 -2.375 1.195312 -1.988281 1.34375 -1.65625 C 1.488281 -1.320312 1.691406 -1.054688 1.953125 -0.859375 C 2.222656 -0.671875 2.539062 -0.578125 2.90625 -0.578125 Z M 2.90625 -0.578125 "/></g></g></g><g fill="#737373" fill-opacity="1"><g transform="translate(72.108816, 8.646923)"><g/></g></g><g fill="#737373" fill-opacity="1"><g transform="translate(73.498476, 8.646923)"><g><path d="M 2.484375 -5.5625 C 2.929688 -5.5625 3.300781 -5.46875 3.59375 -5.28125 C 3.882812 -5.101562 4.09375 -4.875 4.21875 -4.59375 C 4.34375 -4.320312 4.40625 -4.035156 4.40625 -3.734375 C 4.40625 -3.421875 4.34375 -3.128906 4.21875 -2.859375 C 4.09375 -2.585938 3.882812 -2.363281 3.59375 -2.1875 C 3.3125 -2.007812 2.941406 -1.921875 2.484375 -1.921875 L 1.265625 -1.921875 L 1.265625 0 L 0.59375 0 L 0.59375 -5.5625 Z M 2.390625 -2.515625 C 2.773438 -2.515625 3.09375 -2.601562 3.34375 -2.78125 C 3.601562 -2.96875 3.734375 -3.285156 3.734375 -3.734375 C 3.734375 -4.171875 3.601562 -4.476562 3.34375 -4.65625 C 3.09375 -4.84375 2.773438 -4.9375 2.390625 -4.9375 L 1.265625 -4.9375 L 1.265625 -2.515625 Z M 2.390625 -2.515625 "/></g></g></g><g fill="#737373" fill-opacity="1"><g transform="translate(77.707126, 8.646923)"><g><path d="M 2.921875 0.0625 C 2.390625 0.0625 1.929688 -0.0546875 1.546875 -0.296875 C 1.171875 -0.546875 0.882812 -0.882812 0.6875 -1.3125 C 0.5 -1.75 0.40625 -2.242188 0.40625 -2.796875 C 0.40625 -3.347656 0.503906 -3.84375 0.703125 -4.28125 C 0.898438 -4.71875 1.1875 -5.054688 1.5625 -5.296875 C 1.945312 -5.546875 2.398438 -5.671875 2.921875 -5.671875 C 3.441406 -5.671875 3.890625 -5.546875 4.265625 -5.296875 C 4.640625 -5.054688 4.921875 -4.71875 5.109375 -4.28125 C 5.304688 -3.851562 5.40625 -3.359375 5.40625 -2.796875 C 5.40625 -2.234375 5.304688 -1.738281 5.109375 -1.3125 C 4.921875 -0.882812 4.640625 -0.546875 4.265625 -0.296875 C 3.890625 -0.0546875 3.441406 0.0625 2.921875 0.0625 Z M 2.90625 -0.578125 C 3.269531 -0.578125 3.585938 -0.671875 3.859375 -0.859375 C 4.128906 -1.046875 4.335938 -1.304688 4.484375 -1.640625 C 4.628906 -1.984375 4.703125 -2.375 4.703125 -2.8125 C 4.703125 -3.238281 4.628906 -3.625 4.484375 -3.96875 C 4.335938 -4.3125 4.128906 -4.578125 3.859375 -4.765625 C 3.585938 -4.953125 3.269531 -5.046875 2.90625 -5.046875 C 2.539062 -5.046875 2.222656 -4.945312 1.953125 -4.75 C 1.691406 -4.5625 1.488281 -4.296875 1.34375 -3.953125 C 1.195312 -3.617188 1.125 -3.238281 1.125 -2.8125 C 1.125 -2.375 1.195312 -1.988281 1.34375 -1.65625 C 1.488281 -1.320312 1.691406 -1.054688 1.953125 -0.859375 C 2.222656 -0.671875 2.539062 -0.578125 2.90625 -0.578125 Z M 2.90625 -0.578125 "/></g></g></g><g fill="#737373" fill-opacity="1"><g transform="translate(83.106905, 8.646923)"><g><path d="M 2.265625 -2.21875 L 1.28125 -2.21875 L 1.28125 0 L 0.59375 0 L 0.59375 -5.5625 L 2.484375 -5.5625 C 2.929688 -5.5625 3.300781 -5.476562 3.59375 -5.3125 C 3.882812 -5.144531 4.09375 -4.929688 4.21875 -4.671875 C 4.34375 -4.421875 4.40625 -4.15625 4.40625 -3.875 C 4.40625 -3.488281 4.289062 -3.140625 4.0625 -2.828125 C 3.832031 -2.523438 3.472656 -2.332031 2.984375 -2.25 L 4.453125 0 L 3.703125 0 Z M 1.28125 -2.796875 L 2.390625 -2.796875 C 2.765625 -2.796875 3.082031 -2.878906 3.34375 -3.046875 C 3.601562 -3.210938 3.734375 -3.488281 3.734375 -3.875 C 3.734375 -4.257812 3.601562 -4.53125 3.34375 -4.6875 C 3.082031 -4.851562 2.765625 -4.9375 2.390625 -4.9375 L 1.28125 -4.9375 Z M 1.28125 -2.796875 "/></g></g></g><g fill="#737373" fill-opacity="1"><g transform="translate(87.474375, 8.646923)"><g><path d="M 4.3125 -4.9375 L 2.671875 -4.9375 L 2.671875 0 L 2 0 L 2 -4.9375 L 0.359375 -4.9375 L 0.359375 -5.5625 L 4.3125 -5.5625 Z M 4.3125 -4.9375 "/></g></g></g><g fill="#737373" fill-opacity="1"><g transform="translate(91.659206, 8.646923)"><g><path d="M 1.28125 -4.9375 L 1.28125 -3.109375 L 3.609375 -3.125 L 3.609375 -2.5625 L 1.28125 -2.5625 L 1.28125 0 L 0.59375 0 L 0.59375 -5.5625 L 3.90625 -5.5625 L 3.90625 -4.9375 Z M 1.28125 -4.9375 "/></g></g></g><g fill="#737373" fill-opacity="1"><g transform="translate(95.319942, 8.646923)"><g><path d="M 2.921875 0.0625 C 2.390625 0.0625 1.929688 -0.0546875 1.546875 -0.296875 C 1.171875 -0.546875 0.882812 -0.882812 0.6875 -1.3125 C 0.5 -1.75 0.40625 -2.242188 0.40625 -2.796875 C 0.40625 -3.347656 0.503906 -3.84375 0.703125 -4.28125 C 0.898438 -4.71875 1.1875 -5.054688 1.5625 -5.296875 C 1.945312 -5.546875 2.398438 -5.671875 2.921875 -5.671875 C 3.441406 -5.671875 3.890625 -5.546875 4.265625 -5.296875 C 4.640625 -5.054688 4.921875 -4.71875 5.109375 -4.28125 C 5.304688 -3.851562 5.40625 -3.359375 5.40625 -2.796875 C 5.40625 -2.234375 5.304688 -1.738281 5.109375 -1.3125 C 4.921875 -0.882812 4.640625 -0.546875 4.265625 -0.296875 C 3.890625 -0.0546875 3.441406 0.0625 2.921875 0.0625 Z M 2.90625 -0.578125 C 3.269531 -0.578125 3.585938 -0.671875 3.859375 -0.859375 C 4.128906 -1.046875 4.335938 -1.304688 4.484375 -1.640625 C 4.628906 -1.984375 4.703125 -2.375 4.703125 -2.8125 C 4.703125 -3.238281 4.628906 -3.625 4.484375 -3.96875 C 4.335938 -4.3125 4.128906 -4.578125 3.859375 -4.765625 C 3.585938 -4.953125 3.269531 -5.046875 2.90625 -5.046875 C 2.539062 -5.046875 2.222656 -4.945312 1.953125 -4.75 C 1.691406 -4.5625 1.488281 -4.296875 1.34375 -3.953125 C 1.195312 -3.617188 1.125 -3.238281 1.125 -2.8125 C 1.125 -2.375 1.195312 -1.988281 1.34375 -1.65625 C 1.488281 -1.320312 1.691406 -1.054688 1.953125 -0.859375 C 2.222656 -0.671875 2.539062 -0.578125 2.90625 -0.578125 Z M 2.90625 -0.578125 "/></g></g></g><g fill="#737373" fill-opacity="1"><g transform="translate(100.719721, 8.646923)"><g><path d="M 3.875 -0.625 L 3.875 0 L 0.59375 0 L 0.59375 -5.5625 L 1.28125 -5.5625 L 1.28125 -0.625 Z M 3.875 -0.625 "/></g></g></g><g fill="#737373" fill-opacity="1"><g transform="translate(104.48368, 8.646923)"><g><path d="M 0.625 -5.5625 L 1.3125 -5.5625 L 1.3125 0 L 0.625 0 Z M 0.625 -5.5625 "/></g></g></g><g fill="#737373" fill-opacity="1"><g transform="translate(105.976563, 8.646923)"><g><path d="M 2.921875 0.0625 C 2.390625 0.0625 1.929688 -0.0546875 1.546875 -0.296875 C 1.171875 -0.546875 0.882812 -0.882812 0.6875 -1.3125 C 0.5 -1.75 0.40625 -2.242188 0.40625 -2.796875 C 0.40625 -3.347656 0.503906 -3.84375 0.703125 -4.28125 C 0.898438 -4.71875 1.1875 -5.054688 1.5625 -5.296875 C 1.945312 -5.546875 2.398438 -5.671875 2.921875 -5.671875 C 3.441406 -5.671875 3.890625 -5.546875 4.265625 -5.296875 C 4.640625 -5.054688 4.921875 -4.71875 5.109375 -4.28125 C 5.304688 -3.851562 5.40625 -3.359375 5.40625 -2.796875 C 5.40625 -2.234375 5.304688 -1.738281 5.109375 -1.3125 C 4.921875 -0.882812 4.640625 -0.546875 4.265625 -0.296875 C 3.890625 -0.0546875 3.441406 0.0625 2.921875 0.0625 Z M 2.90625 -0.578125 C 3.269531 -0.578125 3.585938 -0.671875 3.859375 -0.859375 C 4.128906 -1.046875 4.335938 -1.304688 4.484375 -1.640625 C 4.628906 -1.984375 4.703125 -2.375 4.703125 -2.8125 C 4.703125 -3.238281 4.628906 -3.625 4.484375 -3.96875 C 4.335938 -4.3125 4.128906 -4.578125 3.859375 -4.765625 C 3.585938 -4.953125 3.269531 -5.046875 2.90625 -5.046875 C 2.539062 -5.046875 2.222656 -4.945312 1.953125 -4.75 C 1.691406 -4.5625 1.488281 -4.296875 1.34375 -3.953125 C 1.195312 -3.617188 1.125 -3.238281 1.125 -2.8125 C 1.125 -2.375 1.195312 -1.988281 1.34375 -1.65625 C 1.488281 -1.320312 1.691406 -1.054688 1.953125 -0.859375 C 2.222656 -0.671875 2.539062 -0.578125 2.90625 -0.578125 Z M 2.90625 -0.578125 "/></g></g></g><g fill="#737373" fill-opacity="1"><g transform="translate(111.376342, 8.646923)"><g/></g></g><g fill="#737373" fill-opacity="1"><g transform="translate(112.766002, 8.646923)"><g><path d="M 0.125 -5.5625 L 0.796875 -5.5625 L 2.046875 -0.8125 L 2.09375 -0.8125 L 3.625 -5.5625 L 4.25 -5.5625 L 5.78125 -0.8125 L 5.828125 -0.8125 L 7.078125 -5.5625 L 7.765625 -5.5625 L 6.265625 0 L 5.359375 0 L 3.953125 -4.359375 L 3.90625 -4.359375 L 2.515625 0 L 1.609375 0 Z M 0.125 -5.5625 "/></g></g></g><g fill="#737373" fill-opacity="1"><g transform="translate(120.29391, 8.646923)"><g><path d="M 1.28125 -4.9375 L 1.28125 -3.109375 L 3.6875 -3.109375 L 3.6875 -2.5625 L 1.28125 -2.5625 L 1.28125 -0.625 L 4.015625 -0.625 L 4.015625 0 L 0.59375 0 L 0.59375 -5.5625 L 4.015625 -5.5625 L 4.015625 -4.9375 Z M 1.28125 -4.9375 "/></g></g></g><g fill="#737373" fill-opacity="1"><g transform="translate(124.375507, 8.646923)"><g><path d="M 0.59375 -5.5625 L 2.8125 -5.5625 C 3.1875 -5.5625 3.488281 -5.488281 3.71875 -5.34375 C 3.957031 -5.195312 4.125 -5.015625 4.21875 -4.796875 C 4.320312 -4.585938 4.375 -4.367188 4.375 -4.140625 C 4.375 -3.898438 4.320312 -3.691406 4.21875 -3.515625 C 4.125 -3.347656 4.003906 -3.210938 3.859375 -3.109375 C 3.722656 -3.015625 3.585938 -2.957031 3.453125 -2.9375 L 3.453125 -2.890625 C 3.597656 -2.878906 3.757812 -2.828125 3.9375 -2.734375 C 4.125 -2.648438 4.285156 -2.507812 4.421875 -2.3125 C 4.566406 -2.125 4.640625 -1.882812 4.640625 -1.59375 C 4.640625 -1.320312 4.578125 -1.066406 4.453125 -0.828125 C 4.335938 -0.585938 4.148438 -0.390625 3.890625 -0.234375 C 3.640625 -0.078125 3.320312 0 2.9375 0 L 0.59375 0 Z M 2.625 -3.125 C 2.925781 -3.125 3.179688 -3.203125 3.390625 -3.359375 C 3.609375 -3.515625 3.71875 -3.753906 3.71875 -4.078125 C 3.71875 -4.390625 3.613281 -4.617188 3.40625 -4.765625 C 3.195312 -4.910156 2.9375 -4.984375 2.625 -4.984375 L 1.265625 -4.984375 L 1.265625 -3.125 Z M 2.765625 -0.578125 C 3.109375 -0.578125 3.394531 -0.65625 3.625 -0.8125 C 3.851562 -0.976562 3.96875 -1.238281 3.96875 -1.59375 C 3.96875 -1.945312 3.851562 -2.195312 3.625 -2.34375 C 3.394531 -2.5 3.109375 -2.578125 2.765625 -2.578125 L 1.265625 -2.578125 L 1.265625 -0.578125 Z M 2.765625 -0.578125 "/></g></g></g><g fill="#737373" fill-opacity="1"><g transform="translate(128.89385, 8.646923)"><g><path d="M 2.421875 0.0625 C 1.992188 0.0625 1.628906 -0.0234375 1.328125 -0.203125 C 1.023438 -0.378906 0.796875 -0.609375 0.640625 -0.890625 C 0.484375 -1.171875 0.40625 -1.460938 0.40625 -1.765625 L 0.40625 -1.8125 L 1.171875 -1.8125 L 1.171875 -1.765625 C 1.171875 -1.585938 1.210938 -1.40625 1.296875 -1.21875 C 1.378906 -1.03125 1.515625 -0.875 1.703125 -0.75 C 1.898438 -0.625 2.144531 -0.5625 2.4375 -0.5625 C 2.789062 -0.5625 3.082031 -0.648438 3.3125 -0.828125 C 3.539062 -1.015625 3.65625 -1.257812 3.65625 -1.5625 C 3.65625 -1.8125 3.570312 -2.007812 3.40625 -2.15625 C 3.238281 -2.3125 3.023438 -2.414062 2.765625 -2.46875 L 1.953125 -2.625 C 1.023438 -2.832031 0.5625 -3.320312 0.5625 -4.09375 C 0.5625 -4.414062 0.632812 -4.691406 0.78125 -4.921875 C 0.9375 -5.160156 1.148438 -5.34375 1.421875 -5.46875 C 1.691406 -5.601562 2.007812 -5.671875 2.375 -5.671875 C 2.78125 -5.671875 3.128906 -5.585938 3.421875 -5.421875 C 3.710938 -5.265625 3.929688 -5.050781 4.078125 -4.78125 C 4.222656 -4.519531 4.296875 -4.253906 4.296875 -3.984375 L 4.296875 -3.9375 L 3.546875 -3.9375 L 3.546875 -3.96875 C 3.546875 -4.125 3.503906 -4.285156 3.421875 -4.453125 C 3.347656 -4.617188 3.222656 -4.765625 3.046875 -4.890625 C 2.867188 -5.015625 2.632812 -5.078125 2.34375 -5.078125 C 2.007812 -5.078125 1.742188 -4.984375 1.546875 -4.796875 C 1.347656 -4.609375 1.25 -4.378906 1.25 -4.109375 C 1.25 -3.867188 1.328125 -3.675781 1.484375 -3.53125 C 1.640625 -3.382812 1.847656 -3.285156 2.109375 -3.234375 L 2.84375 -3.09375 C 3.863281 -2.882812 4.375 -2.382812 4.375 -1.59375 C 4.375 -1.269531 4.289062 -0.984375 4.125 -0.734375 C 3.96875 -0.484375 3.738281 -0.285156 3.4375 -0.140625 C 3.144531 -0.00390625 2.804688 0.0625 2.421875 0.0625 Z M 2.421875 0.0625 "/></g></g></g><g fill="#737373" fill-opacity="1"><g transform="translate(133.23749, 8.646923)"><g><path d="M 0.625 -5.5625 L 1.3125 -5.5625 L 1.3125 0 L 0.625 0 Z M 0.625 -5.5625 "/></g></g></g><g fill="#737373" fill-opacity="1"><g transform="translate(134.730374, 8.646923)"><g><path d="M 4.3125 -4.9375 L 2.671875 -4.9375 L 2.671875 0 L 2 0 L 2 -4.9375 L 0.359375 -4.9375 L 0.359375 -5.5625 L 4.3125 -5.5625 Z M 4.3125 -4.9375 "/></g></g></g><g fill="#737373" fill-opacity="1"><g transform="translate(138.915205, 8.646923)"><g><path d="M 1.28125 -4.9375 L 1.28125 -3.109375 L 3.6875 -3.109375 L 3.6875 -2.5625 L 1.28125 -2.5625 L 1.28125 -0.625 L 4.015625 -0.625 L 4.015625 0 L 0.59375 0 L 0.59375 -5.5625 L 4.015625 -5.5625 L 4.015625 -4.9375 Z M 1.28125 -4.9375 "/></g></g></g></g></g><g transform="matrix(1, 0, 0, 1, 36, 8)"><g clip-path="url(#7b67e925fe)"><g fill="#1b1b1b" fill-opacity="1"><g transform="translate(2.520967, 31.482673)"><g><path d="M 10.421875 -14.6875 L 11.078125 -2.15625 C 13.085938 -4.625 14.910156 -7.097656 16.546875 -9.578125 C 18.179688 -12.066406 19 -13.882812 19 -15.03125 C 19 -15.207031 18.929688 -15.34375 18.796875 -15.4375 C 18.671875 -15.539062 18.460938 -15.664062 18.171875 -15.8125 C 17.691406 -16.007812 17.304688 -16.25 17.015625 -16.53125 C 16.722656 -16.820312 16.578125 -17.269531 16.578125 -17.875 C 16.578125 -18.394531 16.753906 -18.828125 17.109375 -19.171875 C 17.472656 -19.515625 17.882812 -19.6875 18.34375 -19.6875 C 18.863281 -19.6875 19.375 -19.46875 19.875 -19.03125 C 20.382812 -18.601562 20.640625 -17.785156 20.640625 -16.578125 C 20.640625 -15.492188 20.304688 -14.316406 19.640625 -13.046875 C 18.984375 -11.785156 17.9375 -10.078125 16.5 -7.921875 C 14.914062 -5.566406 12.945312 -2.921875 10.59375 0.015625 C 8.238281 2.960938 6.34375 5.179688 4.90625 6.671875 C 3.238281 8.367188 1.734375 9.21875 0.390625 9.21875 C -0.0664062 9.21875 -0.472656 9.050781 -0.828125 8.71875 C -1.191406 8.394531 -1.375 8.015625 -1.375 7.578125 C -1.375 7.035156 -1.144531 6.523438 -0.6875 6.046875 C -0.226562 5.578125 0.285156 5.34375 0.859375 5.34375 C 1.117188 5.34375 1.304688 5.410156 1.421875 5.546875 C 1.535156 5.691406 1.679688 5.910156 1.859375 6.203125 C 2.054688 6.660156 2.269531 6.890625 2.5 6.890625 C 2.757812 6.890625 3.332031 6.53125 4.21875 5.8125 C 5.113281 5.09375 6.421875 3.65625 8.140625 1.5 L 7.453125 -12.015625 C 7.367188 -13.453125 7.269531 -14.550781 7.15625 -15.3125 C 7.039062 -16.070312 6.785156 -16.679688 6.390625 -17.140625 C 6.003906 -17.597656 5.410156 -17.828125 4.609375 -17.828125 C 4.066406 -17.828125 3.566406 -17.769531 3.109375 -17.65625 L 2.890625 -18.4375 L 9.265625 -19.6875 C 9.691406 -19.03125 9.976562 -18.3125 10.125 -17.53125 C 10.269531 -16.757812 10.367188 -15.8125 10.421875 -14.6875 Z M 10.421875 -14.6875 "/></g></g></g><g fill="#1b1b1b" fill-opacity="1"><g transform="translate(20.138788, 31.482673)"><g><path d="M 13.390625 -19.6875 C 14.171875 -19.6875 14.875 -19.421875 15.5 -18.890625 C 16.132812 -18.359375 16.523438 -17.617188 16.671875 -16.671875 L 16.75 -16.671875 L 17.453125 -19.21875 L 20.84375 -19.6875 L 16.40625 -4.140625 C 16.382812 -4.078125 16.316406 -3.859375 16.203125 -3.484375 C 16.085938 -3.109375 16.03125 -2.738281 16.03125 -2.375 C 16.03125 -2.144531 16.085938 -1.960938 16.203125 -1.828125 C 16.316406 -1.703125 16.441406 -1.640625 16.578125 -1.640625 C 16.953125 -1.640625 17.425781 -1.894531 18 -2.40625 C 18.582031 -2.925781 19.128906 -3.644531 19.640625 -4.5625 L 20.296875 -4.140625 C 19.515625 -2.703125 18.523438 -1.566406 17.328125 -0.734375 C 16.140625 0.0976562 15.085938 0.515625 14.171875 0.515625 C 13.648438 0.515625 13.257812 0.328125 13 -0.046875 C 12.75 -0.421875 12.625 -0.878906 12.625 -1.421875 C 12.625 -1.796875 12.703125 -2.40625 12.859375 -3.25 C 13.015625 -4.09375 13.265625 -4.945312 13.609375 -5.8125 L 13.53125 -5.90625 C 10.3125 -1.625 7.394531 0.515625 4.78125 0.515625 C 3.632812 0.515625 2.722656 0.0195312 2.046875 -0.96875 C 1.367188 -1.957031 1.03125 -3.097656 1.03125 -4.390625 C 1.03125 -6.628906 1.679688 -8.945312 2.984375 -11.34375 C 4.296875 -13.75 5.921875 -15.738281 7.859375 -17.3125 C 9.796875 -18.894531 11.640625 -19.6875 13.390625 -19.6875 Z M 4.484375 -5.21875 C 4.484375 -4.09375 4.738281 -3.269531 5.25 -2.75 C 5.769531 -2.238281 6.375 -1.984375 7.0625 -1.984375 C 7.957031 -1.984375 8.921875 -2.382812 9.953125 -3.1875 C 10.984375 -3.988281 11.9375 -5.015625 12.8125 -6.265625 C 13.6875 -7.515625 14.34375 -8.785156 14.78125 -10.078125 C 15.207031 -11.335938 15.519531 -12.378906 15.71875 -13.203125 C 15.925781 -14.023438 16.03125 -14.820312 16.03125 -15.59375 C 16.03125 -16.71875 15.769531 -17.546875 15.25 -18.078125 C 14.726562 -18.609375 14.125 -18.875 13.4375 -18.875 C 12.09375 -18.875 10.722656 -18.046875 9.328125 -16.390625 C 7.929688 -14.742188 6.773438 -12.8125 5.859375 -10.59375 C 4.941406 -8.382812 4.484375 -6.59375 4.484375 -5.21875 Z M 4.484375 -5.21875 "/></g></g></g><g fill="#1b1b1b" fill-opacity="1"><g transform="translate(38.661246, 31.482673)"><g><path d="M 6.546875 -9.65625 C 8.128906 -12.289062 9.890625 -14.617188 11.828125 -16.640625 C 13.765625 -18.671875 15.535156 -19.6875 17.140625 -19.6875 C 18.003906 -19.6875 18.628906 -19.40625 19.015625 -18.84375 C 19.398438 -18.28125 19.59375 -17.628906 19.59375 -16.890625 C 19.59375 -15.765625 19.304688 -14.195312 18.734375 -12.1875 L 17.625 -8.40625 L 17.703125 -8.3125 C 19.546875 -11.613281 21.472656 -14.332031 23.484375 -16.46875 C 25.492188 -18.613281 27.375 -19.6875 29.125 -19.6875 C 29.664062 -19.6875 30.1875 -19.460938 30.6875 -19.015625 C 31.195312 -18.566406 31.453125 -17.828125 31.453125 -16.796875 C 31.453125 -16.484375 31.40625 -16.082031 31.3125 -15.59375 C 31.226562 -15.101562 31.144531 -14.671875 31.0625 -14.296875 L 28.296875 -4.65625 C 28.242188 -4.476562 28.144531 -4.128906 28 -3.609375 C 27.851562 -3.097656 27.78125 -2.710938 27.78125 -2.453125 C 27.78125 -1.941406 27.941406 -1.6875 28.265625 -1.6875 C 28.628906 -1.6875 29.132812 -2.03125 29.78125 -2.71875 C 30.4375 -3.40625 30.976562 -4.050781 31.40625 -4.65625 L 31.96875 -4.140625 C 31.164062 -2.898438 30.179688 -1.8125 29.015625 -0.875 C 27.847656 0.0507812 26.832031 0.515625 25.96875 0.515625 C 25.65625 0.515625 25.328125 0.378906 24.984375 0.109375 C 24.640625 -0.160156 24.46875 -0.628906 24.46875 -1.296875 C 24.46875 -2.128906 24.726562 -3.460938 25.25 -5.296875 L 27.53125 -13.3125 C 27.875 -14.457031 28.046875 -15.363281 28.046875 -16.03125 C 28.046875 -16.375 27.953125 -16.664062 27.765625 -16.90625 C 27.578125 -17.15625 27.335938 -17.28125 27.046875 -17.28125 C 26.128906 -17.28125 25.144531 -16.773438 24.09375 -15.765625 C 23.050781 -14.765625 21.925781 -13.398438 20.71875 -11.671875 C 19.625 -10.117188 18.6875 -8.625 17.90625 -7.1875 C 17.132812 -5.757812 16.632812 -4.640625 16.40625 -3.828125 C 15.6875 -1.503906 15.300781 -0.226562 15.25 0 L 12.015625 0 L 15.515625 -12.328125 C 15.648438 -12.785156 15.8125 -13.394531 16 -14.15625 C 16.1875 -14.914062 16.28125 -15.539062 16.28125 -16.03125 C 16.28125 -16.394531 16.171875 -16.6875 15.953125 -16.90625 C 15.742188 -17.125 15.492188 -17.234375 15.203125 -17.234375 C 14.347656 -17.234375 13.316406 -16.703125 12.109375 -15.640625 C 10.898438 -14.578125 9.691406 -13.140625 8.484375 -11.328125 C 7.566406 -9.984375 6.832031 -8.769531 6.28125 -7.6875 C 5.738281 -6.613281 5.195312 -5.1875 4.65625 -3.40625 C 4.050781 -1.363281 3.734375 -0.226562 3.703125 0 L 0.390625 0 L 4.609375 -14.78125 C 4.867188 -15.632812 5 -16.265625 5 -16.671875 C 5 -17.585938 4.523438 -18.046875 3.578125 -18.046875 C 3.003906 -18.046875 2.53125 -17.988281 2.15625 -17.875 L 2.15625 -18.65625 L 8.578125 -19.6875 L 9.34375 -19.6875 L 6.46875 -9.734375 Z M 6.546875 -9.65625 "/></g></g></g><g fill="#1b1b1b" fill-opacity="1"><g transform="translate(68.857378, 31.482673)"><g><path d="M 13.390625 -19.6875 C 14.171875 -19.6875 14.875 -19.421875 15.5 -18.890625 C 16.132812 -18.359375 16.523438 -17.617188 16.671875 -16.671875 L 16.75 -16.671875 L 17.453125 -19.21875 L 20.84375 -19.6875 L 16.40625 -4.140625 C 16.382812 -4.078125 16.316406 -3.859375 16.203125 -3.484375 C 16.085938 -3.109375 16.03125 -2.738281 16.03125 -2.375 C 16.03125 -2.144531 16.085938 -1.960938 16.203125 -1.828125 C 16.316406 -1.703125 16.441406 -1.640625 16.578125 -1.640625 C 16.953125 -1.640625 17.425781 -1.894531 18 -2.40625 C 18.582031 -2.925781 19.128906 -3.644531 19.640625 -4.5625 L 20.296875 -4.140625 C 19.515625 -2.703125 18.523438 -1.566406 17.328125 -0.734375 C 16.140625 0.0976562 15.085938 0.515625 14.171875 0.515625 C 13.648438 0.515625 13.257812 0.328125 13 -0.046875 C 12.75 -0.421875 12.625 -0.878906 12.625 -1.421875 C 12.625 -1.796875 12.703125 -2.40625 12.859375 -3.25 C 13.015625 -4.09375 13.265625 -4.945312 13.609375 -5.8125 L 13.53125 -5.90625 C 10.3125 -1.625 7.394531 0.515625 4.78125 0.515625 C 3.632812 0.515625 2.722656 0.0195312 2.046875 -0.96875 C 1.367188 -1.957031 1.03125 -3.097656 1.03125 -4.390625 C 1.03125 -6.628906 1.679688 -8.945312 2.984375 -11.34375 C 4.296875 -13.75 5.921875 -15.738281 7.859375 -17.3125 C 9.796875 -18.894531 11.640625 -19.6875 13.390625 -19.6875 Z M 4.484375 -5.21875 C 4.484375 -4.09375 4.738281 -3.269531 5.25 -2.75 C 5.769531 -2.238281 6.375 -1.984375 7.0625 -1.984375 C 7.957031 -1.984375 8.921875 -2.382812 9.953125 -3.1875 C 10.984375 -3.988281 11.9375 -5.015625 12.8125 -6.265625 C 13.6875 -7.515625 14.34375 -8.785156 14.78125 -10.078125 C 15.207031 -11.335938 15.519531 -12.378906 15.71875 -13.203125 C 15.925781 -14.023438 16.03125 -14.820312 16.03125 -15.59375 C 16.03125 -16.71875 15.769531 -17.546875 15.25 -18.078125 C 14.726562 -18.609375 14.125 -18.875 13.4375 -18.875 C 12.09375 -18.875 10.722656 -18.046875 9.328125 -16.390625 C 7.929688 -14.742188 6.773438 -12.8125 5.859375 -10.59375 C 4.941406 -8.382812 4.484375 -6.59375 4.484375 -5.21875 Z M 4.484375 -5.21875 "/></g></g></g><g fill="#1b1b1b" fill-opacity="1"><g transform="translate(87.379836, 31.482673)"><g><path d="M 10.171875 -19.6875 C 11.203125 -19.6875 12.175781 -19.441406 13.09375 -18.953125 C 13.613281 -18.722656 13.972656 -18.609375 14.171875 -18.609375 C 14.710938 -18.609375 15.160156 -18.96875 15.515625 -19.6875 L 16.28125 -19.6875 L 15.125 -13.140625 L 14.34375 -13.140625 C 14.34375 -15.003906 13.972656 -16.410156 13.234375 -17.359375 C 12.503906 -18.304688 11.609375 -18.78125 10.546875 -18.78125 C 9.773438 -18.78125 9.140625 -18.535156 8.640625 -18.046875 C 8.140625 -17.554688 7.890625 -17.007812 7.890625 -16.40625 C 7.890625 -15.71875 8.085938 -15.019531 8.484375 -14.3125 C 8.890625 -13.613281 9.519531 -12.691406 10.375 -11.546875 C 11.351562 -10.285156 12.097656 -9.179688 12.609375 -8.234375 C 13.128906 -7.285156 13.390625 -6.289062 13.390625 -5.25 C 13.390625 -4.28125 13.125 -3.351562 12.59375 -2.46875 C 12.0625 -1.59375 11.304688 -0.875 10.328125 -0.3125 C 9.359375 0.238281 8.226562 0.515625 6.9375 0.515625 C 6.1875 0.515625 5.28125 0.328125 4.21875 -0.046875 C 3.476562 -0.273438 2.988281 -0.390625 2.75 -0.390625 C 2.207031 -0.390625 1.722656 -0.0859375 1.296875 0.515625 L 0.390625 0.515625 L 1.640625 -6.375 L 2.5 -6.375 C 2.613281 -4.65625 2.960938 -3.226562 3.546875 -2.09375 C 4.140625 -0.957031 5.238281 -0.390625 6.84375 -0.390625 C 7.96875 -0.390625 8.84375 -0.769531 9.46875 -1.53125 C 10.101562 -2.289062 10.421875 -3.085938 10.421875 -3.921875 C 10.421875 -4.523438 10.25 -5.148438 9.90625 -5.796875 C 9.5625 -6.441406 9.171875 -7.078125 8.734375 -7.703125 C 8.304688 -8.335938 8.023438 -8.753906 7.890625 -8.953125 L 7.234375 -9.90625 C 6.484375 -10.9375 5.929688 -11.828125 5.578125 -12.578125 C 5.222656 -13.328125 5.046875 -14.128906 5.046875 -14.984375 C 5.046875 -16.023438 5.316406 -16.894531 5.859375 -17.59375 C 6.398438 -18.300781 7.070312 -18.828125 7.875 -19.171875 C 8.6875 -19.515625 9.453125 -19.6875 10.171875 -19.6875 Z M 10.171875 -19.6875 "/></g></g></g><g clip-path="url(#6b5e6c8330)"><g fill="#1b1b1b" fill-opacity="1"><g transform="translate(100.948519, 31.482673)"><g><path d="M 12.671875 -30.890625 L 6.59375 -9.734375 L 6.671875 -9.65625 C 8.566406 -12.75 10.429688 -15.191406 12.265625 -16.984375 C 14.109375 -18.785156 15.789062 -19.6875 17.3125 -19.6875 C 17.863281 -19.6875 18.390625 -19.445312 18.890625 -18.96875 C 19.390625 -18.5 19.640625 -17.878906 19.640625 -17.109375 C 19.640625 -16.179688 19.441406 -15.015625 19.046875 -13.609375 L 16.5 -4.875 C 16.300781 -4.207031 16.15625 -3.6875 16.0625 -3.3125 C 15.976562 -2.9375 15.9375 -2.625 15.9375 -2.375 C 15.9375 -2.113281 15.984375 -1.925781 16.078125 -1.8125 C 16.179688 -1.695312 16.289062 -1.640625 16.40625 -1.640625 C 16.726562 -1.640625 17.222656 -1.988281 17.890625 -2.6875 C 18.566406 -3.394531 19.125 -4.050781 19.5625 -4.65625 L 20.203125 -4.171875 C 19.453125 -3.054688 18.503906 -1.992188 17.359375 -0.984375 C 16.210938 0.015625 15.164062 0.515625 14.21875 0.515625 C 13.695312 0.515625 13.285156 0.328125 12.984375 -0.046875 C 12.679688 -0.421875 12.53125 -0.847656 12.53125 -1.328125 C 12.53125 -1.992188 12.691406 -2.84375 13.015625 -3.875 L 15.59375 -12.921875 C 16.019531 -14.328125 16.234375 -15.304688 16.234375 -15.859375 C 16.234375 -16.285156 16.125 -16.628906 15.90625 -16.890625 C 15.695312 -17.148438 15.4375 -17.28125 15.125 -17.28125 C 14.226562 -17.28125 13.097656 -16.582031 11.734375 -15.1875 C 10.367188 -13.789062 8.941406 -11.929688 7.453125 -9.609375 C 6.472656 -8.023438 5.710938 -6.316406 5.171875 -4.484375 L 3.828125 0 L 0.609375 0 L 7.328125 -23.390625 C 7.722656 -24.742188 8.003906 -25.75 8.171875 -26.40625 C 8.347656 -27.0625 8.4375 -27.566406 8.4375 -27.921875 C 8.4375 -28.429688 8.25 -28.75 7.875 -28.875 C 7.507812 -29.007812 6.894531 -29.078125 6.03125 -29.078125 L 6.03125 -29.859375 L 11.9375 -30.890625 Z M 12.671875 -30.890625 "/></g></g></g></g><g fill="#1b1b1b" fill-opacity="1"><g transform="translate(119.470976, 31.482673)"><g><path d="M 10.25 -28.296875 C 10.851562 -28.296875 11.367188 -28.082031 11.796875 -27.65625 C 12.234375 -27.226562 12.453125 -26.726562 12.453125 -26.15625 C 12.453125 -25.550781 12.234375 -25.03125 11.796875 -24.59375 C 11.367188 -24.164062 10.851562 -23.953125 10.25 -23.953125 C 9.675781 -23.953125 9.171875 -24.164062 8.734375 -24.59375 C 8.304688 -25.03125 8.09375 -25.550781 8.09375 -26.15625 C 8.09375 -26.726562 8.304688 -27.226562 8.734375 -27.65625 C 9.171875 -28.082031 9.675781 -28.296875 10.25 -28.296875 Z M 6.03125 -3.828125 C 5.800781 -3.085938 5.6875 -2.570312 5.6875 -2.28125 C 5.6875 -1.820312 5.929688 -1.59375 6.421875 -1.59375 C 6.765625 -1.59375 7.242188 -1.859375 7.859375 -2.390625 C 8.472656 -2.921875 9.113281 -3.703125 9.78125 -4.734375 L 10.46875 -4.3125 C 9.519531 -2.84375 8.457031 -1.671875 7.28125 -0.796875 C 6.101562 0.078125 5.023438 0.515625 4.046875 0.515625 C 3.472656 0.515625 3.035156 0.328125 2.734375 -0.046875 C 2.429688 -0.421875 2.28125 -0.921875 2.28125 -1.546875 C 2.28125 -2.003906 2.367188 -2.535156 2.546875 -3.140625 L 5.984375 -14.984375 C 6.191406 -15.703125 6.296875 -16.207031 6.296875 -16.5 C 6.296875 -16.875 6.164062 -17.203125 5.90625 -17.484375 C 5.644531 -17.773438 5.253906 -17.921875 4.734375 -17.921875 C 4.535156 -17.921875 3.992188 -17.847656 3.109375 -17.703125 L 3.3125 -18.4375 L 9.859375 -19.6875 L 10.59375 -19.6875 Z M 6.03125 -3.828125 "/></g></g></g><g fill="#1b1b1b" fill-opacity="1"><g transform="translate(128.128967, 31.482673)"><g><path d="M 11.71875 -24.46875 L 12.53125 -24.46875 L 11.03125 -19.21875 L 14.046875 -19.21875 L 13.703125 -17.875 L 10.640625 -17.875 L 6.8125 -4.484375 C 6.46875 -3.328125 6.296875 -2.550781 6.296875 -2.15625 C 6.296875 -1.632812 6.507812 -1.375 6.9375 -1.375 C 7.3125 -1.375 7.769531 -1.582031 8.3125 -2 C 8.851562 -2.414062 9.359375 -2.878906 9.828125 -3.390625 C 10.304688 -3.910156 10.5625 -4.226562 10.59375 -4.34375 L 11.421875 -4.34375 C 10.296875 -2.570312 9.171875 -1.316406 8.046875 -0.578125 C 6.929688 0.148438 5.914062 0.515625 5 0.515625 C 4.507812 0.515625 4.0625 0.328125 3.65625 -0.046875 C 3.257812 -0.421875 3.0625 -0.992188 3.0625 -1.765625 C 3.0625 -2.285156 3.234375 -3.191406 3.578125 -4.484375 L 7.40625 -17.875 L 4.171875 -17.875 L 4.484375 -18.828125 C 6.171875 -19.109375 7.550781 -19.757812 8.625 -20.78125 C 9.707031 -21.800781 10.738281 -23.03125 11.71875 -24.46875 Z M 11.71875 -24.46875 "/></g></g></g><g fill="#1b1b1b" fill-opacity="1"><g transform="translate(139.457676, 31.482673)"><g><path d="M 13.390625 -19.6875 C 14.171875 -19.6875 14.875 -19.421875 15.5 -18.890625 C 16.132812 -18.359375 16.523438 -17.617188 16.671875 -16.671875 L 16.75 -16.671875 L 17.453125 -19.21875 L 20.84375 -19.6875 L 16.40625 -4.140625 C 16.382812 -4.078125 16.316406 -3.859375 16.203125 -3.484375 C 16.085938 -3.109375 16.03125 -2.738281 16.03125 -2.375 C 16.03125 -2.144531 16.085938 -1.960938 16.203125 -1.828125 C 16.316406 -1.703125 16.441406 -1.640625 16.578125 -1.640625 C 16.953125 -1.640625 17.425781 -1.894531 18 -2.40625 C 18.582031 -2.925781 19.128906 -3.644531 19.640625 -4.5625 L 20.296875 -4.140625 C 19.515625 -2.703125 18.523438 -1.566406 17.328125 -0.734375 C 16.140625 0.0976562 15.085938 0.515625 14.171875 0.515625 C 13.648438 0.515625 13.257812 0.328125 13 -0.046875 C 12.75 -0.421875 12.625 -0.878906 12.625 -1.421875 C 12.625 -1.796875 12.703125 -2.40625 12.859375 -3.25 C 13.015625 -4.09375 13.265625 -4.945312 13.609375 -5.8125 L 13.53125 -5.90625 C 10.3125 -1.625 7.394531 0.515625 4.78125 0.515625 C 3.632812 0.515625 2.722656 0.0195312 2.046875 -0.96875 C 1.367188 -1.957031 1.03125 -3.097656 1.03125 -4.390625 C 1.03125 -6.628906 1.679688 -8.945312 2.984375 -11.34375 C 4.296875 -13.75 5.921875 -15.738281 7.859375 -17.3125 C 9.796875 -18.894531 11.640625 -19.6875 13.390625 -19.6875 Z M 4.484375 -5.21875 C 4.484375 -4.09375 4.738281 -3.269531 5.25 -2.75 C 5.769531 -2.238281 6.375 -1.984375 7.0625 -1.984375 C 7.957031 -1.984375 8.921875 -2.382812 9.953125 -3.1875 C 10.984375 -3.988281 11.9375 -5.015625 12.8125 -6.265625 C 13.6875 -7.515625 14.34375 -8.785156 14.78125 -10.078125 C 15.207031 -11.335938 15.519531 -12.378906 15.71875 -13.203125 C 15.925781 -14.023438 16.03125 -14.820312 16.03125 -15.59375 C 16.03125 -16.71875 15.769531 -17.546875 15.25 -18.078125 C 14.726562 -18.609375 14.125 -18.875 13.4375 -18.875 C 12.09375 -18.875 10.722656 -18.046875 9.328125 -16.390625 C 7.929688 -14.742188 6.773438 -12.8125 5.859375 -10.59375 C 4.941406 -8.382812 4.484375 -6.59375 4.484375 -5.21875 Z M 4.484375 -5.21875 "/></g></g></g><g fill="#1b1b1b" fill-opacity="1"><g transform="translate(157.980148, 31.482673)"><g><path d="M 6.546875 -9.65625 C 8.128906 -12.289062 9.890625 -14.617188 11.828125 -16.640625 C 13.765625 -18.671875 15.535156 -19.6875 17.140625 -19.6875 C 18.003906 -19.6875 18.628906 -19.40625 19.015625 -18.84375 C 19.398438 -18.28125 19.59375 -17.628906 19.59375 -16.890625 C 19.59375 -15.765625 19.304688 -14.195312 18.734375 -12.1875 L 17.625 -8.40625 L 17.703125 -8.3125 C 19.546875 -11.613281 21.472656 -14.332031 23.484375 -16.46875 C 25.492188 -18.613281 27.375 -19.6875 29.125 -19.6875 C 29.664062 -19.6875 30.1875 -19.460938 30.6875 -19.015625 C 31.195312 -18.566406 31.453125 -17.828125 31.453125 -16.796875 C 31.453125 -16.484375 31.40625 -16.082031 31.3125 -15.59375 C 31.226562 -15.101562 31.144531 -14.671875 31.0625 -14.296875 L 28.296875 -4.65625 C 28.242188 -4.476562 28.144531 -4.128906 28 -3.609375 C 27.851562 -3.097656 27.78125 -2.710938 27.78125 -2.453125 C 27.78125 -1.941406 27.941406 -1.6875 28.265625 -1.6875 C 28.628906 -1.6875 29.132812 -2.03125 29.78125 -2.71875 C 30.4375 -3.40625 30.976562 -4.050781 31.40625 -4.65625 L 31.96875 -4.140625 C 31.164062 -2.898438 30.179688 -1.8125 29.015625 -0.875 C 27.847656 0.0507812 26.832031 0.515625 25.96875 0.515625 C 25.65625 0.515625 25.328125 0.378906 24.984375 0.109375 C 24.640625 -0.160156 24.46875 -0.628906 24.46875 -1.296875 C 24.46875 -2.128906 24.726562 -3.460938 25.25 -5.296875 L 27.53125 -13.3125 C 27.875 -14.457031 28.046875 -15.363281 28.046875 -16.03125 C 28.046875 -16.375 27.953125 -16.664062 27.765625 -16.90625 C 27.578125 -17.15625 27.335938 -17.28125 27.046875 -17.28125 C 26.128906 -17.28125 25.144531 -16.773438 24.09375 -15.765625 C 23.050781 -14.765625 21.925781 -13.398438 20.71875 -11.671875 C 19.625 -10.117188 18.6875 -8.625 17.90625 -7.1875 C 17.132812 -5.757812 16.632812 -4.640625 16.40625 -3.828125 C 15.6875 -1.503906 15.300781 -0.226562 15.25 0 L 12.015625 0 L 15.515625 -12.328125 C 15.648438 -12.785156 15.8125 -13.394531 16 -14.15625 C 16.1875 -14.914062 16.28125 -15.539062 16.28125 -16.03125 C 16.28125 -16.394531 16.171875 -16.6875 15.953125 -16.90625 C 15.742188 -17.125 15.492188 -17.234375 15.203125 -17.234375 C 14.347656 -17.234375 13.316406 -16.703125 12.109375 -15.640625 C 10.898438 -14.578125 9.691406 -13.140625 8.484375 -11.328125 C 7.566406 -9.984375 6.832031 -8.769531 6.28125 -7.6875 C 5.738281 -6.613281 5.195312 -5.1875 4.65625 -3.40625 C 4.050781 -1.363281 3.734375 -0.226562 3.703125 0 L 0.390625 0 L 4.609375 -14.78125 C 4.867188 -15.632812 5 -16.265625 5 -16.671875 C 5 -17.585938 4.523438 -18.046875 3.578125 -18.046875 C 3.003906 -18.046875 2.53125 -17.988281 2.15625 -17.875 L 2.15625 -18.65625 L 8.578125 -19.6875 L 9.34375 -19.6875 L 6.46875 -9.734375 Z M 6.546875 -9.65625 "/></g></g></g><g fill="#1b1b1b" fill-opacity="1"><g transform="translate(188.176272, 31.482673)"><g><path d="M 13.390625 -19.6875 C 14.171875 -19.6875 14.875 -19.421875 15.5 -18.890625 C 16.132812 -18.359375 16.523438 -17.617188 16.671875 -16.671875 L 16.75 -16.671875 L 17.453125 -19.21875 L 20.84375 -19.6875 L 16.40625 -4.140625 C 16.382812 -4.078125 16.316406 -3.859375 16.203125 -3.484375 C 16.085938 -3.109375 16.03125 -2.738281 16.03125 -2.375 C 16.03125 -2.144531 16.085938 -1.960938 16.203125 -1.828125 C 16.316406 -1.703125 16.441406 -1.640625 16.578125 -1.640625 C 16.953125 -1.640625 17.425781 -1.894531 18 -2.40625 C 18.582031 -2.925781 19.128906 -3.644531 19.640625 -4.5625 L 20.296875 -4.140625 C 19.515625 -2.703125 18.523438 -1.566406 17.328125 -0.734375 C 16.140625 0.0976562 15.085938 0.515625 14.171875 0.515625 C 13.648438 0.515625 13.257812 0.328125 13 -0.046875 C 12.75 -0.421875 12.625 -0.878906 12.625 -1.421875 C 12.625 -1.796875 12.703125 -2.40625 12.859375 -3.25 C 13.015625 -4.09375 13.265625 -4.945312 13.609375 -5.8125 L 13.53125 -5.90625 C 10.3125 -1.625 7.394531 0.515625 4.78125 0.515625 C 3.632812 0.515625 2.722656 0.0195312 2.046875 -0.96875 C 1.367188 -1.957031 1.03125 -3.097656 1.03125 -4.390625 C 1.03125 -6.628906 1.679688 -8.945312 2.984375 -11.34375 C 4.296875 -13.75 5.921875 -15.738281 7.859375 -17.3125 C 9.796875 -18.894531 11.640625 -19.6875 13.390625 -19.6875 Z M 4.484375 -5.21875 C 4.484375 -4.09375 4.738281 -3.269531 5.25 -2.75 C 5.769531 -2.238281 6.375 -1.984375 7.0625 -1.984375 C 7.957031 -1.984375 8.921875 -2.382812 9.953125 -3.1875 C 10.984375 -3.988281 11.9375 -5.015625 12.8125 -6.265625 C 13.6875 -7.515625 14.34375 -8.785156 14.78125 -10.078125 C 15.207031 -11.335938 15.519531 -12.378906 15.71875 -13.203125 C 15.925781 -14.023438 16.03125 -14.820312 16.03125 -15.59375 C 16.03125 -16.71875 15.769531 -17.546875 15.25 -18.078125 C 14.726562 -18.609375 14.125 -18.875 13.4375 -18.875 C 12.09375 -18.875 10.722656 -18.046875 9.328125 -16.390625 C 7.929688 -14.742188 6.773438 -12.8125 5.859375 -10.59375 C 4.941406 -8.382812 4.484375 -6.59375 4.484375 -5.21875 Z M 4.484375 -5.21875 "/></g></g></g><g fill="#1b1b1b" fill-opacity="1"><g transform="translate(206.69873, 31.482673)"><g><path d="M 6.765625 -9.6875 C 8.578125 -12.675781 10.398438 -15.085938 12.234375 -16.921875 C 14.066406 -18.765625 15.773438 -19.6875 17.359375 -19.6875 C 18.015625 -19.6875 18.566406 -19.460938 19.015625 -19.015625 C 19.460938 -18.566406 19.6875 -17.929688 19.6875 -17.109375 C 19.6875 -16.328125 19.484375 -15.203125 19.078125 -13.734375 L 16.375 -4.4375 C 16.113281 -3.519531 15.984375 -2.890625 15.984375 -2.546875 C 15.984375 -2.285156 16.046875 -2.097656 16.171875 -1.984375 C 16.304688 -1.867188 16.441406 -1.8125 16.578125 -1.8125 C 16.929688 -1.8125 17.460938 -2.179688 18.171875 -2.921875 C 18.890625 -3.671875 19.378906 -4.265625 19.640625 -4.703125 L 20.296875 -4.171875 C 19.398438 -2.941406 18.398438 -1.851562 17.296875 -0.90625 C 16.191406 0.0390625 15.148438 0.515625 14.171875 0.515625 C 13.710938 0.515625 13.320312 0.335938 13 -0.015625 C 12.6875 -0.378906 12.53125 -0.863281 12.53125 -1.46875 C 12.53125 -2.09375 12.691406 -2.9375 13.015625 -4 L 15.9375 -14.296875 C 15.96875 -14.390625 16.039062 -14.628906 16.15625 -15.015625 C 16.269531 -15.398438 16.328125 -15.78125 16.328125 -16.15625 C 16.328125 -16.53125 16.222656 -16.816406 16.015625 -17.015625 C 15.816406 -17.210938 15.601562 -17.3125 15.375 -17.3125 C 14.71875 -17.3125 13.765625 -16.75 12.515625 -15.625 C 11.265625 -14.507812 10.050781 -13.109375 8.875 -11.421875 C 7.863281 -10.015625 7.050781 -8.710938 6.4375 -7.515625 C 5.820312 -6.328125 5.269531 -4.882812 4.78125 -3.1875 C 4.40625 -1.945312 4.101562 -0.882812 3.875 0 L 0.5625 0 L 4.65625 -14.34375 C 4.6875 -14.425781 4.785156 -14.789062 4.953125 -15.4375 C 5.128906 -16.082031 5.21875 -16.550781 5.21875 -16.84375 C 5.21875 -17.1875 5.09375 -17.453125 4.84375 -17.640625 C 4.601562 -17.828125 4.28125 -17.921875 3.875 -17.921875 C 3.476562 -17.921875 2.90625 -17.890625 2.15625 -17.828125 L 2.15625 -18.609375 L 8.75 -19.6875 L 9.515625 -19.6875 L 6.671875 -9.78125 Z M 6.765625 -9.6875 "/></g></g></g><g clip-path="url(#100f6da493)"><g fill="#1b1b1b" fill-opacity="1"><g transform="translate(225.221188, 31.482673)"><g><path d="M 13.390625 -19.6875 C 14.171875 -19.6875 14.875 -19.421875 15.5 -18.890625 C 16.132812 -18.359375 16.523438 -17.617188 16.671875 -16.671875 L 16.75 -16.671875 L 17.453125 -19.21875 L 20.84375 -19.6875 L 16.40625 -4.140625 C 16.382812 -4.078125 16.316406 -3.859375 16.203125 -3.484375 C 16.085938 -3.109375 16.03125 -2.738281 16.03125 -2.375 C 16.03125 -2.144531 16.085938 -1.960938 16.203125 -1.828125 C 16.316406 -1.703125 16.441406 -1.640625 16.578125 -1.640625 C 16.953125 -1.640625 17.425781 -1.894531 18 -2.40625 C 18.582031 -2.925781 19.128906 -3.644531 19.640625 -4.5625 L 20.296875 -4.140625 C 19.515625 -2.703125 18.523438 -1.566406 17.328125 -0.734375 C 16.140625 0.0976562 15.085938 0.515625 14.171875 0.515625 C 13.648438 0.515625 13.257812 0.328125 13 -0.046875 C 12.75 -0.421875 12.625 -0.878906 12.625 -1.421875 C 12.625 -1.796875 12.703125 -2.40625 12.859375 -3.25 C 13.015625 -4.09375 13.265625 -4.945312 13.609375 -5.8125 L 13.53125 -5.90625 C 10.3125 -1.625 7.394531 0.515625 4.78125 0.515625 C 3.632812 0.515625 2.722656 0.0195312 2.046875 -0.96875 C 1.367188 -1.957031 1.03125 -3.097656 1.03125 -4.390625 C 1.03125 -6.628906 1.679688 -8.945312 2.984375 -11.34375 C 4.296875 -13.75 5.921875 -15.738281 7.859375 -17.3125 C 9.796875 -18.894531 11.640625 -19.6875 13.390625 -19.6875 Z M 4.484375 -5.21875 C 4.484375 -4.09375 4.738281 -3.269531 5.25 -2.75 C 5.769531 -2.238281 6.375 -1.984375 7.0625 -1.984375 C 7.957031 -1.984375 8.921875 -2.382812 9.953125 -3.1875 C 10.984375 -3.988281 11.9375 -5.015625 12.8125 -6.265625 C 13.6875 -7.515625 14.34375 -8.785156 14.78125 -10.078125 C 15.207031 -11.335938 15.519531 -12.378906 15.71875 -13.203125 C 15.925781 -14.023438 16.03125 -14.820312 16.03125 -15.59375 C 16.03125 -16.71875 15.769531 -17.546875 15.25 -18.078125 C 14.726562 -18.609375 14.125 -18.875 13.4375 -18.875 C 12.09375 -18.875 10.722656 -18.046875 9.328125 -16.390625 C 7.929688 -14.742188 6.773438 -12.8125 5.859375 -10.59375 C 4.941406 -8.382812 4.484375 -6.59375 4.484375 -5.21875 Z M 4.484375 -5.21875 "/></g></g></g></g></g></g></svg>