<svg xmlns="http://www.w3.org/2000/svg" xmlns:xlink="http://www.w3.org/1999/xlink" width="500" zoomAndPan="magnify" viewBox="0 0 375 149.999998" height="200" preserveAspectRatio="xMidYMid meet" version="1.0"><defs><g/></defs><path fill="#ffffff" d="M 34.355469 55.582031 C 37.542969 56.820312 39.140625 60.4375 37.878906 63.628906 L 27.808594 89.507812 C 26.570312 92.699219 22.949219 94.292969 19.757812 93.054688 C 16.59375 91.816406 14.996094 88.199219 16.234375 85.007812 L 26.308594 59.105469 C 27.542969 55.9375 31.164062 54.34375 34.355469 55.582031 " fill-opacity="1" fill-rule="evenodd"/><path fill="#cccccc" d="M 74.566406 55.582031 C 77.757812 56.820312 79.351562 60.4375 78.113281 63.628906 L 68.019531 89.507812 C 66.78125 92.699219 63.160156 94.292969 59.996094 93.054688 C 56.804688 91.816406 55.210938 88.199219 56.449219 85.007812 L 66.519531 59.105469 C 67.757812 55.9375 71.375 54.34375 74.566406 55.582031 " fill-opacity="1" fill-rule="evenodd"/><path fill="#ffffff" d="M 34.355469 55.582031 C 31.164062 54.34375 27.542969 55.9375 26.308594 59.105469 L 16.234375 85.007812 C 14.996094 88.199219 16.59375 91.816406 19.757812 93.054688 C 22.949219 94.292969 26.570312 92.699219 27.808594 89.507812 L 37.878906 63.628906 C 39.140625 60.4375 37.542969 56.820312 34.355469 55.582031 Z M 69.992188 55.582031 C 66.804688 56.820312 65.210938 60.4375 66.445312 63.628906 L 76.519531 89.507812 C 77.78125 92.699219 81.398438 94.292969 84.566406 93.054688 C 87.753906 91.816406 89.351562 88.199219 88.113281 85.007812 L 78.019531 59.105469 C 76.78125 55.9375 73.160156 54.34375 69.992188 55.582031 Z M 54.472656 55.582031 C 57.636719 56.820312 59.234375 60.4375 57.996094 63.628906 L 47.925781 89.507812 C 46.6875 92.699219 43.066406 94.292969 39.878906 93.054688 C 36.6875 91.816406 35.09375 88.199219 36.328125 85.007812 L 46.425781 59.105469 C 47.664062 55.9375 51.28125 54.34375 54.472656 55.582031 " fill-opacity="1" fill-rule="evenodd"/><g fill="#ffffff" fill-opacity="1"><g transform="translate(95.879976, 89.471688)"><g><path d="M 15.546875 2.3125 L 14.109375 -6.015625 L 7.671875 -6.015625 L 6.234375 2.3125 L 0.78125 2.3125 L 7.75 -34.765625 L 14.03125 -34.765625 L 21 2.3125 Z M 12.421875 -16.953125 C 12.328125 -17.503906 12.222656 -18.171875 12.109375 -18.953125 C 11.992188 -19.734375 11.878906 -20.550781 11.765625 -21.40625 C 11.648438 -22.269531 11.546875 -23.132812 11.453125 -24 C 11.367188 -24.875 11.28125 -25.664062 11.1875 -26.375 C 11.101562 -27.082031 11.039062 -27.691406 11 -28.203125 C 10.957031 -28.710938 10.921875 -29.023438 10.890625 -29.140625 C 10.859375 -28.941406 10.789062 -28.347656 10.6875 -27.359375 C 10.59375 -26.367188 10.460938 -25.234375 10.296875 -23.953125 C 10.140625 -22.679688 9.976562 -21.398438 9.8125 -20.109375 C 9.65625 -18.816406 9.503906 -17.765625 9.359375 -16.953125 L 8.359375 -11.234375 L 13.421875 -11.234375 Z M 12.421875 -16.953125 "/></g></g></g><g fill="#ffffff" fill-opacity="1"><g transform="translate(117.441535, 89.471688)"><g><path d="M 14.890625 2.3125 L 8.40625 -17.515625 C 8.257812 -17.921875 8.078125 -18.550781 7.859375 -19.40625 C 7.640625 -20.257812 7.425781 -21.144531 7.21875 -22.0625 C 7.019531 -22.976562 6.84375 -23.832031 6.6875 -24.625 C 6.53125 -25.425781 6.421875 -25.957031 6.359375 -26.21875 C 6.390625 -25.988281 6.445312 -25.523438 6.53125 -24.828125 C 6.625 -24.128906 6.710938 -23.300781 6.796875 -22.34375 C 6.878906 -21.382812 6.945312 -20.347656 7 -19.234375 C 7.0625 -18.117188 7.09375 -17.035156 7.09375 -15.984375 L 7.09375 2.3125 L 2.09375 2.3125 L 2.09375 -34.765625 L 6.890625 -34.765625 L 13.375 -15.59375 C 13.550781 -15.125 13.738281 -14.46875 13.9375 -13.625 C 14.144531 -12.789062 14.347656 -11.9375 14.546875 -11.0625 C 14.753906 -10.195312 14.9375 -9.390625 15.09375 -8.640625 C 15.25 -7.898438 15.359375 -7.398438 15.421875 -7.140625 C 15.390625 -7.378906 15.328125 -7.804688 15.234375 -8.421875 C 15.148438 -9.046875 15.066406 -9.800781 14.984375 -10.6875 C 14.898438 -11.570312 14.828125 -12.582031 14.765625 -13.71875 C 14.710938 -14.851562 14.6875 -16.046875 14.6875 -17.296875 L 14.6875 -34.765625 L 19.6875 -34.765625 L 19.6875 2.3125 Z M 14.890625 2.3125 "/></g></g></g><g fill="#ffffff" fill-opacity="1"><g transform="translate(139.003095, 89.471688)"><g><path d="M 15.546875 2.3125 L 14.109375 -6.015625 L 7.671875 -6.015625 L 6.234375 2.3125 L 0.78125 2.3125 L 7.75 -34.765625 L 14.03125 -34.765625 L 21 2.3125 Z M 12.421875 -16.953125 C 12.328125 -17.503906 12.222656 -18.171875 12.109375 -18.953125 C 11.992188 -19.734375 11.878906 -20.550781 11.765625 -21.40625 C 11.648438 -22.269531 11.546875 -23.132812 11.453125 -24 C 11.367188 -24.875 11.28125 -25.664062 11.1875 -26.375 C 11.101562 -27.082031 11.039062 -27.691406 11 -28.203125 C 10.957031 -28.710938 10.921875 -29.023438 10.890625 -29.140625 C 10.859375 -28.941406 10.789062 -28.347656 10.6875 -27.359375 C 10.59375 -26.367188 10.460938 -25.234375 10.296875 -23.953125 C 10.140625 -22.679688 9.976562 -21.398438 9.8125 -20.109375 C 9.65625 -18.816406 9.503906 -17.765625 9.359375 -16.953125 L 8.359375 -11.234375 L 13.421875 -11.234375 Z M 12.421875 -16.953125 "/></g></g></g><g fill="#ffffff" fill-opacity="1"><g transform="translate(160.564654, 89.471688)"><g><path d="M 2.609375 2.265625 L 2.609375 -34.71875 L 11.71875 -34.71875 C 13.164062 -34.71875 14.429688 -34.390625 15.515625 -33.734375 C 16.609375 -33.085938 17.523438 -32.238281 18.265625 -31.1875 C 19.015625 -30.144531 19.566406 -28.953125 19.921875 -27.609375 C 20.285156 -26.273438 20.46875 -24.925781 20.46875 -23.5625 L 20.46875 -23.4375 C 20.46875 -22.039062 20.285156 -20.660156 19.921875 -19.296875 C 19.566406 -17.929688 19.023438 -16.703125 18.296875 -15.609375 C 17.566406 -14.523438 16.65625 -13.640625 15.5625 -12.953125 C 14.476562 -12.273438 13.210938 -11.9375 11.765625 -11.9375 L 8.0625 -11.9375 L 8.0625 2.265625 Z M 11.234375 -17.03125 C 11.898438 -17.03125 12.472656 -17.21875 12.953125 -17.59375 C 13.429688 -17.976562 13.832031 -18.46875 14.15625 -19.0625 C 14.476562 -19.65625 14.710938 -20.335938 14.859375 -21.109375 C 15.003906 -21.878906 15.078125 -22.65625 15.078125 -23.4375 C 15.078125 -24.1875 14.992188 -24.929688 14.828125 -25.671875 C 14.671875 -26.421875 14.429688 -27.082031 14.109375 -27.65625 C 13.796875 -28.238281 13.398438 -28.710938 12.921875 -29.078125 C 12.441406 -29.441406 11.878906 -29.625 11.234375 -29.625 L 8.015625 -29.625 L 8.015625 -17.03125 Z M 11.234375 -17.03125 "/></g></g></g><g fill="#ffffff" fill-opacity="1"><g transform="translate(182.126214, 89.471688)"><g><path d="M 14.203125 -34.71875 L 19.6875 -34.71875 L 19.6875 -8.28125 C 19.6875 -4.644531 18.898438 -1.882812 17.328125 0 C 15.765625 1.882812 13.617188 2.828125 10.890625 2.828125 C 8.160156 2.828125 6.007812 1.882812 4.4375 0 C 2.875 -1.882812 2.09375 -4.644531 2.09375 -8.28125 L 2.09375 -34.71875 L 7.578125 -34.71875 L 7.578125 -8.453125 C 7.578125 -6.472656 7.804688 -4.972656 8.265625 -3.953125 C 8.734375 -2.941406 9.609375 -2.4375 10.890625 -2.4375 C 12.171875 -2.4375 13.039062 -2.941406 13.5 -3.953125 C 13.96875 -4.972656 14.203125 -6.472656 14.203125 -8.453125 Z M 14.203125 -34.71875 "/></g></g></g><g fill="#ffffff" fill-opacity="1"><g transform="translate(203.687777, 89.471688)"><g><path d="M 14.9375 2.3125 L 10.15625 -13.984375 L 8.0625 -13.984375 L 8.0625 2.3125 L 2.75 2.3125 L 2.75 -34.765625 L 11.84375 -34.765625 C 13.351562 -34.765625 14.644531 -34.46875 15.71875 -33.875 C 16.800781 -33.28125 17.679688 -32.503906 18.359375 -31.546875 C 19.046875 -30.585938 19.546875 -29.492188 19.859375 -28.265625 C 20.179688 -27.046875 20.34375 -25.8125 20.34375 -24.5625 C 20.34375 -24.363281 20.3125 -23.847656 20.25 -23.015625 C 20.195312 -22.191406 20.007812 -21.265625 19.6875 -20.234375 C 19.375 -19.203125 18.867188 -18.1875 18.171875 -17.1875 C 17.472656 -16.1875 16.484375 -15.378906 15.203125 -14.765625 L 20.90625 2.3125 Z M 11.203125 -19 C 11.890625 -19 12.472656 -19.175781 12.953125 -19.53125 C 13.429688 -19.894531 13.820312 -20.351562 14.125 -20.90625 C 14.4375 -21.457031 14.664062 -22.0625 14.8125 -22.71875 C 14.957031 -23.375 15.03125 -24.003906 15.03125 -24.609375 C 15.03125 -25.222656 14.957031 -25.832031 14.8125 -26.4375 C 14.664062 -27.050781 14.445312 -27.597656 14.15625 -28.078125 C 13.863281 -28.554688 13.492188 -28.945312 13.046875 -29.25 C 12.597656 -29.550781 12.066406 -29.703125 11.453125 -29.703125 L 8.0625 -29.703125 L 8.0625 -19 Z M 11.203125 -19 "/></g></g></g><g fill="#ffffff" fill-opacity="1"><g transform="translate(225.249341, 89.471688)"><g><path d="M 15.546875 2.3125 L 14.109375 -6.015625 L 7.671875 -6.015625 L 6.234375 2.3125 L 0.78125 2.3125 L 7.75 -34.765625 L 14.03125 -34.765625 L 21 2.3125 Z M 12.421875 -16.953125 C 12.328125 -17.503906 12.222656 -18.171875 12.109375 -18.953125 C 11.992188 -19.734375 11.878906 -20.550781 11.765625 -21.40625 C 11.648438 -22.269531 11.546875 -23.132812 11.453125 -24 C 11.367188 -24.875 11.28125 -25.664062 11.1875 -26.375 C 11.101562 -27.082031 11.039062 -27.691406 11 -28.203125 C 10.957031 -28.710938 10.921875 -29.023438 10.890625 -29.140625 C 10.859375 -28.941406 10.789062 -28.347656 10.6875 -27.359375 C 10.59375 -26.367188 10.460938 -25.234375 10.296875 -23.953125 C 10.140625 -22.679688 9.976562 -21.398438 9.8125 -20.109375 C 9.65625 -18.816406 9.503906 -17.765625 9.359375 -16.953125 L 8.359375 -11.234375 L 13.421875 -11.234375 Z M 12.421875 -16.953125 "/></g></g></g><g fill="#ffffff" fill-opacity="1"><g transform="translate(246.810905, 89.471688)"><g><path d="M 1.78125 2.265625 L 1.78125 -2.609375 L 13.15625 -29.484375 L 3.1875 -29.484375 L 3.1875 -34.71875 L 19.46875 -34.71875 L 19.46875 -30.140625 L 7.921875 -3.046875 L 19.828125 -3.046875 L 19.828125 2.265625 Z M 1.78125 2.265625 "/></g></g></g><g fill="#ffffff" fill-opacity="1"><g transform="translate(268.372468, 89.471688)"><g><path d="M 15.546875 2.3125 L 14.109375 -6.015625 L 7.671875 -6.015625 L 6.234375 2.3125 L 0.78125 2.3125 L 7.75 -34.765625 L 14.03125 -34.765625 L 21 2.3125 Z M 12.421875 -16.953125 C 12.328125 -17.503906 12.222656 -18.171875 12.109375 -18.953125 C 11.992188 -19.734375 11.878906 -20.550781 11.765625 -21.40625 C 11.648438 -22.269531 11.546875 -23.132812 11.453125 -24 C 11.367188 -24.875 11.28125 -25.664062 11.1875 -26.375 C 11.101562 -27.082031 11.039062 -27.691406 11 -28.203125 C 10.957031 -28.710938 10.921875 -29.023438 10.890625 -29.140625 C 10.859375 -28.941406 10.789062 -28.347656 10.6875 -27.359375 C 10.59375 -26.367188 10.460938 -25.234375 10.296875 -23.953125 C 10.140625 -22.679688 9.976562 -21.398438 9.8125 -20.109375 C 9.65625 -18.816406 9.503906 -17.765625 9.359375 -16.953125 L 8.359375 -11.234375 L 13.421875 -11.234375 Z M 12.421875 -16.953125 "/></g></g></g><g fill="#ffffff" fill-opacity="1"><g transform="translate(289.934032, 89.471688)"><g><path d="M 5.84375 3 C 4.757812 3 3.847656 2.59375 3.109375 1.78125 C 2.367188 0.96875 2 -0.015625 2 -1.171875 C 2 -1.753906 2.097656 -2.289062 2.296875 -2.78125 C 2.503906 -3.28125 2.78125 -3.71875 3.125 -4.09375 C 3.476562 -4.46875 3.882812 -4.765625 4.34375 -4.984375 C 4.8125 -5.203125 5.3125 -5.3125 5.84375 -5.3125 C 6.363281 -5.3125 6.851562 -5.203125 7.3125 -4.984375 C 7.78125 -4.765625 8.179688 -4.46875 8.515625 -4.09375 C 8.847656 -3.71875 9.113281 -3.28125 9.3125 -2.78125 C 9.519531 -2.289062 9.625 -1.753906 9.625 -1.171875 C 9.625 -0.597656 9.519531 -0.0546875 9.3125 0.453125 C 9.113281 0.960938 8.847656 1.40625 8.515625 1.78125 C 8.179688 2.164062 7.78125 2.460938 7.3125 2.671875 C 6.851562 2.890625 6.363281 3 5.84375 3 Z M 5.84375 3 "/></g></g></g><g fill="#ffffff" fill-opacity="1"><g transform="translate(298.889664, 89.471688)"><g><path d="M 19.421875 1.09375 C 19.046875 1.382812 18.609375 1.648438 18.109375 1.890625 C 17.617188 2.140625 17.113281 2.347656 16.59375 2.515625 C 16.070312 2.691406 15.535156 2.820312 14.984375 2.90625 C 14.429688 3 13.910156 3.046875 13.421875 3.046875 C 11.523438 3.046875 9.875 2.59375 8.46875 1.6875 C 7.0625 0.789062 5.894531 -0.492188 4.96875 -2.171875 C 4.039062 -3.859375 3.34375 -5.882812 2.875 -8.25 C 2.40625 -10.625 2.171875 -13.257812 2.171875 -16.15625 C 2.171875 -19.125 2.425781 -21.789062 2.9375 -24.15625 C 3.445312 -26.519531 4.179688 -28.53125 5.140625 -30.1875 C 6.097656 -31.84375 7.273438 -33.113281 8.671875 -34 C 10.066406 -34.882812 11.648438 -35.328125 13.421875 -35.328125 C 14.316406 -35.328125 15.257812 -35.175781 16.25 -34.875 C 17.238281 -34.570312 18.035156 -34.1875 18.640625 -33.71875 L 18.640625 -27.359375 C 17.972656 -28.253906 17.1875 -28.898438 16.28125 -29.296875 C 15.382812 -29.691406 14.515625 -29.890625 13.671875 -29.890625 C 12.628906 -29.890625 11.738281 -29.53125 11 -28.8125 C 10.257812 -28.101562 9.648438 -27.128906 9.171875 -25.890625 C 8.691406 -24.660156 8.34375 -23.207031 8.125 -21.53125 C 7.90625 -19.863281 7.796875 -18.070312 7.796875 -16.15625 C 7.796875 -14.09375 7.910156 -12.21875 8.140625 -10.53125 C 8.378906 -8.851562 8.742188 -7.410156 9.234375 -6.203125 C 9.722656 -5.003906 10.335938 -4.078125 11.078125 -3.421875 C 11.828125 -2.765625 12.691406 -2.4375 13.671875 -2.4375 C 14.753906 -2.4375 15.75 -2.660156 16.65625 -3.109375 C 17.570312 -3.566406 18.492188 -4.316406 19.421875 -5.359375 Z M 19.421875 1.09375 "/></g></g></g><g fill="#ffffff" fill-opacity="1"><g transform="translate(318.969927, 89.471688)"><g><path d="M 10.890625 2.875 C 9.179688 2.875 7.722656 2.429688 6.515625 1.546875 C 5.304688 0.660156 4.332031 -0.597656 3.59375 -2.234375 C 2.851562 -3.878906 2.316406 -5.878906 1.984375 -8.234375 C 1.648438 -10.585938 1.484375 -13.226562 1.484375 -16.15625 C 1.484375 -19.09375 1.65625 -21.738281 2 -24.09375 C 2.351562 -26.445312 2.910156 -28.445312 3.671875 -30.09375 C 4.441406 -31.75 5.421875 -33.019531 6.609375 -33.90625 C 7.804688 -34.789062 9.234375 -35.234375 10.890625 -35.234375 C 12.597656 -35.234375 14.054688 -34.789062 15.265625 -33.90625 C 16.472656 -33.019531 17.445312 -31.75 18.1875 -30.09375 C 18.925781 -28.445312 19.460938 -26.445312 19.796875 -24.09375 C 20.128906 -21.738281 20.296875 -19.09375 20.296875 -16.15625 C 20.296875 -13.226562 20.128906 -10.585938 19.796875 -8.234375 C 19.460938 -5.878906 18.925781 -3.878906 18.1875 -2.234375 C 17.445312 -0.597656 16.472656 0.660156 15.265625 1.546875 C 14.054688 2.429688 12.597656 2.875 10.890625 2.875 Z M 10.890625 -2.4375 C 11.671875 -2.4375 12.304688 -2.738281 12.796875 -3.34375 C 13.296875 -3.957031 13.691406 -4.851562 13.984375 -6.03125 C 14.273438 -7.207031 14.476562 -8.644531 14.59375 -10.34375 C 14.707031 -12.039062 14.765625 -13.976562 14.765625 -16.15625 C 14.765625 -18.25 14.71875 -20.132812 14.625 -21.8125 C 14.539062 -23.5 14.367188 -24.945312 14.109375 -26.15625 C 13.847656 -27.363281 13.460938 -28.285156 12.953125 -28.921875 C 12.453125 -29.566406 11.765625 -29.890625 10.890625 -29.890625 C 10.015625 -29.890625 9.320312 -29.566406 8.8125 -28.921875 C 8.3125 -28.285156 7.929688 -27.363281 7.671875 -26.15625 C 7.410156 -24.945312 7.234375 -23.5 7.140625 -21.8125 C 7.054688 -20.132812 7.015625 -18.25 7.015625 -16.15625 C 7.015625 -13.976562 7.070312 -12.039062 7.1875 -10.34375 C 7.300781 -8.644531 7.503906 -7.207031 7.796875 -6.03125 C 8.085938 -4.851562 8.476562 -3.957031 8.96875 -3.34375 C 9.46875 -2.738281 10.109375 -2.4375 10.890625 -2.4375 Z M 10.890625 -2.4375 "/></g></g></g><g fill="#ffffff" fill-opacity="1"><g transform="translate(339.050191, 89.471688)"><g><path d="M 16.765625 2.265625 L 16.125 -13.25 C 16.09375 -13.65625 16.078125 -14.144531 16.078125 -14.71875 C 16.078125 -15.300781 16.078125 -15.941406 16.078125 -16.640625 C 16.078125 -18.035156 16.082031 -19.546875 16.09375 -21.171875 C 16.113281 -22.796875 16.125 -24.265625 16.125 -25.578125 C 16.125 -26.242188 16.125 -26.828125 16.125 -27.328125 C 16.125 -27.835938 16.109375 -28.253906 16.078125 -28.578125 C 16.015625 -28.222656 15.960938 -27.703125 15.921875 -27.015625 C 15.878906 -26.335938 15.828125 -25.585938 15.765625 -24.765625 C 15.710938 -23.941406 15.65625 -23.078125 15.59375 -22.171875 C 15.539062 -21.273438 15.484375 -20.410156 15.421875 -19.578125 C 15.359375 -18.753906 15.296875 -18.003906 15.234375 -17.328125 C 15.179688 -16.660156 15.140625 -16.15625 15.109375 -15.8125 L 13.109375 2.265625 L 8.71875 2.265625 L 6.671875 -15.8125 C 6.609375 -16.363281 6.53125 -17.234375 6.4375 -18.421875 C 6.351562 -19.617188 6.269531 -20.875 6.1875 -22.1875 C 6.101562 -23.507812 6.015625 -24.765625 5.921875 -25.953125 C 5.835938 -27.148438 5.765625 -28.023438 5.703125 -28.578125 L 5.703125 -26.828125 C 5.703125 -23.609375 5.703125 -21.097656 5.703125 -19.296875 C 5.703125 -17.492188 5.691406 -16.15625 5.671875 -15.28125 C 5.660156 -14.414062 5.65625 -13.875 5.65625 -13.65625 C 5.65625 -13.4375 5.65625 -13.300781 5.65625 -13.25 L 5.015625 2.265625 L 0.609375 2.265625 L 2.828125 -34.71875 L 7.703125 -34.71875 L 9.765625 -16.765625 C 9.847656 -16.160156 9.929688 -15.320312 10.015625 -14.25 C 10.109375 -13.175781 10.203125 -12.050781 10.296875 -10.875 C 10.398438 -9.695312 10.503906 -8.5625 10.609375 -7.46875 C 10.710938 -6.382812 10.804688 -5.535156 10.890625 -4.921875 C 10.972656 -5.554688 11.066406 -6.425781 11.171875 -7.53125 C 11.273438 -8.632812 11.375 -9.773438 11.46875 -10.953125 C 11.570312 -12.128906 11.675781 -13.253906 11.78125 -14.328125 C 11.882812 -15.398438 11.960938 -16.210938 12.015625 -16.765625 L 14.078125 -34.71875 L 18.953125 -34.71875 L 21.171875 2.265625 Z M 16.765625 2.265625 "/></g></g></g></svg>